<?xml version="1.0" standalone="no"?>
<!DOCTYPE svg PUBLIC "-//W3C//DTD SVG 20010904//EN"
 "http://www.w3.org/TR/2001/REC-SVG-20010904/DTD/svg10.dtd">
<svg version="1.0" xmlns="http://www.w3.org/2000/svg"
 width="460.000000pt" height="460.000000pt" viewBox="0 0 460.000000 460.000000"
 preserveAspectRatio="xMidYMid meet">
<metadata>
Created by potrace 1.11, written by Peter Selinger 2001-2013
</metadata>
<g transform="translate(0.000000,460.000000) scale(0.100000,-0.100000)"
fill="#000000" stroke="none">
<path d="M996 4588 c24 -40 109 -141 285 -337 47 -53 96 -108 109 -123 35 -41
43 -34 19 14 -30 58 -159 209 -172 201 -5 -3 -7 -1 -4 4 4 6 -46 65 -111 132
-107 109 -147 144 -126 109z"/>
<path d="M1560 4549 c101 -49 174 -99 213 -143 l18 -21 -10 22 c-19 38 -86 87
-195 141 -58 28 -111 52 -118 52 -7 0 34 -23 92 -51z"/>
<path d="M2005 4590 l-50 -7 45 -1 c25 0 65 3 90 7 l45 8 -40 0 c-22 0 -62 -3
-90 -7z"/>
<path d="M2443 4593 c-23 -9 -14 -20 26 -31 59 -18 129 -60 175 -106 60 -60
96 -104 106 -129 9 -22 9 -22 9 -1 1 12 -8 31 -19 44 -11 13 -20 26 -20 30 0
17 -150 151 -161 144 -4 -2 -14 2 -21 10 -8 7 -29 17 -46 21 -18 3 -30 11 -26
16 6 10 -3 11 -23 2z"/>
<path d="M2565 4590 c17 -4 41 -8 55 -8 22 0 22 1 -5 8 -16 4 -41 8 -55 8 -22
0 -22 -1 5 -8z"/>
<path d="M1860 4570 l-25 -8 25 0 c14 0 39 4 55 8 l30 8 -30 0 c-16 0 -41 -4
-55 -8z"/>
<path d="M2676 4565 c10 -8 26 -15 34 -15 10 -1 9 -4 -5 -10 -16 -7 -17 -9 -3
-9 9 -1 19 3 23 8 8 14 -23 41 -48 41 -20 0 -20 0 -1 -15z"/>
<path d="M2755 4540 c3 -5 11 -10 16 -10 6 0 7 5 4 10 -3 6 -11 10 -16 10 -6
0 -7 -4 -4 -10z"/>
<path d="M2798 4523 c6 -2 9 -10 6 -15 -4 -7 -2 -8 5 -4 13 9 5 26 -12 25 -9
0 -8 -2 1 -6z"/>
<path d="M2975 4460 c11 -5 16 -9 10 -9 -5 -1 -26 -15 -45 -31 -19 -16 -39
-30 -43 -30 -5 0 -15 -7 -23 -15 -18 -17 -13 -19 51 -17 l40 2 -35 -15 -35
-15 45 5 45 4 -54 -14 c-30 -7 -60 -20 -69 -28 -13 -13 -6 -13 54 -1 48 10 76
12 98 5 17 -6 49 -12 71 -14 22 -2 49 -8 60 -12 32 -13 95 -57 95 -66 0 -4
-37 5 -82 20 -46 16 -103 32 -128 35 l-45 6 40 -15 40 -14 -40 4 c-29 3 -35 2
-20 -5 11 -5 37 -9 57 -9 20 -1 40 -6 43 -11 4 -6 10 -8 15 -5 17 11 260 -100
298 -135 12 -11 26 -20 33 -20 6 0 8 -7 5 -16 -3 -8 -2 -12 4 -9 6 3 10 1 10
-5 0 -6 5 -8 11 -4 8 4 8 0 0 -15 -9 -16 -9 -21 0 -21 7 0 10 -2 7 -5 -7 -7
-96 40 -185 98 -140 92 -321 163 -396 155 -50 -5 -42 -24 9 -20 25 3 67 -2 92
-9 54 -14 163 -64 207 -94 42 -28 85 -53 123 -70 17 -9 32 -19 32 -23 0 -5 17
-18 38 -29 49 -28 84 -62 76 -74 -3 -5 0 -8 7 -7 7 2 13 -4 14 -12 0 -8 7 -15
15 -15 8 -1 14 -6 13 -13 -2 -7 3 -11 10 -9 6 1 11 -4 9 -11 -1 -8 2 -11 8 -7
5 3 10 2 10 -3 0 -5 12 -22 28 -39 45 -48 72 -83 66 -83 -3 0 6 -14 21 -31 14
-18 24 -38 21 -46 -3 -8 -2 -12 3 -8 14 8 37 -68 40 -127 1 -10 6 -18 12 -18
7 0 9 10 5 28 -7 27 -7 27 8 5 16 -21 12 -53 -6 -53 -5 0 -6 -5 -3 -11 5 -6
12 -4 22 8 8 10 12 13 9 7 -3 -6 -2 -31 3 -55 5 -24 9 -34 10 -21 1 12 6 22
11 22 11 0 11 -1 16 -40 8 -74 18 -110 26 -102 5 5 4 20 -2 37 -6 15 -9 30 -6
32 2 2 11 -18 21 -46 12 -37 14 -55 6 -70 -15 -28 -14 -38 2 -17 13 17 14 17
25 -10 6 -16 13 -48 14 -71 2 -24 6 -43 9 -43 6 0 29 -110 32 -155 1 -11 4
-22 7 -25 3 -3 14 -48 24 -100 10 -52 22 -108 27 -125 5 -16 11 -46 14 -65 3
-20 10 -49 15 -65 8 -25 9 -21 4 19 -3 27 -1 52 4 55 9 6 73 95 86 121 11 22
-24 -20 -63 -76 l-35 -49 -13 60 c-7 33 -20 110 -28 170 -23 164 -104 467
-146 547 -11 21 -4 25 169 87 121 44 147 48 199 29 41 -15 42 -26 1 -40 l-31
-11 38 -19 c28 -15 43 -17 59 -10 19 8 22 6 24 -14 1 -13 -5 -27 -14 -32 -21
-12 -14 -46 10 -50 16 -4 18 0 13 27 -4 19 -3 30 2 26 5 -3 13 0 17 6 4 7 3 9
-2 6 -6 -3 -10 10 -11 31 l0 37 12 -29 c11 -27 12 -27 18 -7 3 11 1 19 -4 15
-13 -7 -11 13 3 39 11 21 11 21 18 2 4 -11 -5 -48 -22 -93 -31 -80 -38 -121
-15 -87 16 24 72 196 91 278 15 65 3 64 -17 0 -12 -41 -12 -41 -37 -27 -23 14
-23 15 -3 11 16 -4 20 -1 16 11 -5 11 -3 13 7 7 8 -5 11 -4 6 3 -4 6 -13 9
-21 6 -22 -9 -41 7 -21 18 9 5 21 6 28 2 6 -4 8 -3 4 4 -3 5 0 13 6 16 7 4 -5
3 -27 0 -70 -12 -123 -7 -147 16 -12 11 -25 20 -30 20 -4 0 -8 5 -8 10 0 6 6
10 14 10 24 0 29 20 10 35 -13 10 -32 13 -62 9 -56 -8 -332 14 -406 32 -54 14
-59 14 -72 -3 -13 -16 -13 -15 -4 9 7 22 6 26 -5 21 -8 -3 -12 -10 -8 -16 3
-6 1 -7 -5 -3 -6 4 -8 14 -5 24 3 9 2 14 -2 9 -5 -4 -21 5 -37 20 -23 22 -25
29 -15 42 10 12 9 14 -3 9 -12 -4 -15 2 -15 28 1 18 5 37 10 41 4 5 5 1 1 -7
-5 -9 -2 -8 7 2 8 10 17 15 20 11 4 -3 7 1 7 10 0 30 100 33 357 13 56 -5 56
-5 13 4 -25 5 -112 12 -193 16 -141 7 -149 8 -157 29 -5 13 -48 63 -97 112
-131 133 -304 240 -480 297 -78 25 -131 35 -88 16z m554 -504 c11 -14 6 -15
-27 -7 -4 1 8 21 12 21 2 0 9 -6 15 -14z m28 -41 c0 -8 -4 -12 -9 -9 -5 3 -6
10 -3 15 9 13 12 11 12 -6z m196 -230 c-3 -9 -8 -14 -10 -11 -3 3 -2 9 2 15 9
16 15 13 8 -4z m593 -202 c-11 -11 -17 4 -9 23 7 18 8 18 11 1 2 -10 1 -21 -2
-24z m-46 -17 c0 -2 -7 -7 -16 -10 -8 -3 -12 -2 -9 4 6 10 25 14 25 6z m20
-102 c0 -8 -5 -12 -10 -9 -6 4 -8 11 -5 16 9 14 15 11 15 -7z"/>
<path d="M2539 4385 c40 -19 89 -44 107 -56 55 -33 39 -14 -18 23 -50 32 -132
68 -153 68 -6 -1 23 -16 64 -35z"/>
<path d="M2169 4369 c-42 -4 -82 -10 -88 -13 -6 -4 -44 -16 -83 -27 -95 -27
-215 -88 -308 -157 -124 -92 -289 -264 -362 -377 -35 -55 -71 -107 -79 -115
-36 -37 -162 -252 -264 -452 -33 -64 -63 -114 -66 -112 -4 2 -5 -4 -2 -14 2
-10 -3 -24 -11 -31 -9 -8 -16 -19 -16 -25 0 -7 -9 -29 -20 -51 -11 -22 -20
-46 -19 -55 0 -14 19 23 86 168 71 154 255 483 300 537 5 6 38 53 73 105 36
52 70 101 77 108 7 7 13 17 13 20 0 16 190 201 259 252 19 14 50 38 70 54 78
62 222 120 381 156 119 27 165 26 219 -5 51 -29 52 -30 45 -10 -15 38 -89 54
-205 44z"/>
<path d="M2830 4350 c-13 -8 -12 -10 3 -10 9 0 17 5 17 10 0 12 -1 12 -20 0z"/>
<path d="M2792 4310 c-7 -11 -9 -20 -4 -20 4 0 13 9 20 20 7 11 9 20 4 20 -4
0 -13 -9 -20 -20z"/>
<path d="M2505 4276 c-48 -11 -45 -12 72 -11 120 0 135 9 31 19 -29 3 -75 -1
-103 -8z"/>
<path d="M2889 4130 c20 -38 37 -66 39 -61 5 14 -54 131 -67 131 -5 0 8 -31
28 -70z"/>
<path d="M2155 4020 c-8 -13 5 -13 25 0 13 8 13 10 -2 10 -9 0 -20 -4 -23 -10z"/>
<path d="M3450 4009 c0 -5 5 -7 10 -4 6 3 10 8 10 11 0 2 -4 4 -10 4 -5 0 -10
-5 -10 -11z"/>
<path d="M2054 3974 c-122 -64 -214 -134 -328 -247 -113 -113 -181 -190 -225
-256 -13 -20 -33 -46 -44 -58 -11 -13 -16 -23 -10 -23 5 0 30 28 54 63 81 115
212 258 319 348 36 30 67 56 70 59 11 12 147 95 200 121 30 16 50 28 43 29 -6
0 -42 -16 -79 -36z"/>
<path d="M4115 3970 c33 -4 94 -8 135 -7 l75 0 -70 7 c-38 4 -99 7 -135 7
l-65 0 60 -7z"/>
<path d="M854 3698 c2 -40 -1 -59 -11 -62 -7 -3 -13 -13 -12 -23 0 -16 1 -16
9 2 5 11 9 15 9 8 1 -18 -10 -43 -18 -38 -4 2 -5 -9 -3 -26 2 -16 8 -29 13
-29 5 0 9 -9 9 -19 0 -19 79 -184 80 -166 0 6 -6 35 -14 65 -20 76 -36 160
-52 260 -11 71 -13 75 -10 28z m2 -144 c-4 -9 -9 -15 -11 -12 -3 3 -3 13 1 22
4 9 9 15 11 12 3 -3 3 -13 -1 -22z"/>
<path d="M3459 3684 c40 -36 161 -207 161 -229 0 -2 11 -28 24 -57 64 -137
112 -320 152 -578 21 -134 24 -488 4 -605 -6 -38 -15 -99 -20 -135 -13 -96
-50 -313 -56 -329 -3 -10 -16 1 -39 33 -19 27 -32 53 -28 59 3 6 1 7 -4 4 -6
-4 -19 14 -29 41 -16 41 -19 79 -20 277 -1 127 -7 275 -13 330 -6 55 -18 181
-26 280 -8 99 -17 194 -21 210 -18 97 -29 140 -59 225 -34 98 -85 221 -95 230
-3 3 -21 30 -41 60 -20 30 -43 66 -52 80 -29 45 -47 64 -53 57 -4 -3 0 -13 7
-21 33 -36 40 -47 38 -59 -1 -6 5 -29 14 -49 10 -21 17 -42 17 -48 0 -6 11
-26 24 -43 70 -93 121 -312 79 -336 -16 -8 -16 -17 -6 -93 7 -45 18 -121 26
-168 21 -118 36 -272 42 -425 5 -146 0 -143 -41 24 -19 75 -23 84 -19 43 3
-29 20 -106 36 -170 17 -64 32 -124 33 -132 1 -8 11 -31 21 -50 l19 -35 12 80
c7 44 13 132 14 195 0 89 3 111 12 96 13 -24 22 -389 10 -431 l-9 -30 -7 32
c-7 31 -22 50 -32 41 -2 -3 3 -19 12 -36 8 -17 18 -48 20 -69 6 -38 6 -38 -35
25 -41 62 -48 78 -33 69 4 -3 8 8 9 24 1 16 -3 29 -8 29 -6 0 -9 -6 -6 -13 3
-8 2 -19 -2 -26 -5 -8 -38 47 -89 146 -117 231 -182 402 -221 588 -46 220 -49
231 -50 198 0 -17 8 -75 20 -130 11 -54 25 -117 30 -141 5 -24 27 -96 50 -160
49 -140 61 -175 86 -269 19 -68 19 -73 3 -73 -20 0 -154 34 -193 49 -39 15
-56 14 -32 -2 27 -18 175 -57 216 -57 31 0 36 -4 53 -42 15 -36 17 -58 12
-138 -4 -74 -3 -91 6 -76 6 11 14 44 17 74 l6 55 54 -109 53 -109 -17 -70
c-10 -38 -21 -74 -25 -80 -4 -5 -11 -21 -15 -35 -26 -92 -96 -202 -180 -285
-33 -33 -59 -64 -57 -68 2 -5 -4 -7 -13 -3 -23 9 -55 -11 -55 -34 0 -11 -9
-28 -20 -37 -11 -10 -20 -23 -20 -31 0 -9 -7 -11 -19 -7 -11 3 -22 2 -25 -4
-3 -5 -15 -7 -26 -4 -12 3 -20 0 -20 -8 0 -7 -3 -9 -7 -6 -3 4 7 20 23 37 16
17 37 39 47 51 15 16 21 18 33 8 12 -10 13 -9 8 4 -3 10 2 20 15 26 68 37 225
201 192 201 -5 0 -12 -8 -16 -19 -8 -28 -134 -145 -180 -168 -22 -11 -57 -26
-78 -33 -21 -6 -36 -14 -33 -17 9 -9 -54 -90 -112 -144 -111 -104 -202 -144
-420 -185 l-150 -28 -20 -46 c-11 -25 -34 -89 -51 -143 -26 -81 -30 -108 -25
-153 4 -30 10 -54 13 -54 3 0 6 35 6 78 1 45 7 90 15 109 l15 31 95 -79 c116
-97 124 -114 116 -250 -8 -155 -43 -227 -133 -275 -29 -16 -53 -33 -53 -37 0
-5 10 -1 22 7 52 37 38 10 -27 -49 l-70 -64 176 -1 176 0 19 41 c10 23 24 48
32 55 7 8 24 44 37 81 16 47 24 60 25 43 1 -14 12 17 25 68 13 52 40 124 60
160 49 89 220 347 291 438 50 64 48 83 -3 29 -79 -83 -248 -203 -287 -205 -5
0 30 37 76 83 113 110 166 178 219 287 29 59 69 175 69 199 0 21 25 45 38 37
24 -14 110 40 182 113 71 74 137 179 155 251 3 14 10 34 15 45 4 11 11 29 14
39 11 33 29 2 23 -41 -6 -42 -33 -210 -43 -258 -4 -21 -2 -26 4 -15 12 18 52
220 52 260 0 24 3 27 23 22 21 -5 21 -5 5 12 -18 17 -26 86 -10 86 4 0 17 -15
30 -34 12 -18 33 -43 46 -55 20 -19 22 -28 16 -59 -4 -20 -11 -54 -14 -75 -4
-21 -11 -35 -15 -32 -5 2 -11 -8 -14 -23 -10 -47 -46 -214 -62 -292 -27 -126
-106 -414 -116 -424 -5 -6 -9 -16 -9 -23 0 -38 -124 -261 -152 -271 -4 -2 -8
-9 -8 -16 0 -7 -10 -22 -23 -34 -19 -18 -17 -10 14 56 55 115 119 316 119 374
0 11 6 34 14 51 7 18 21 52 29 77 9 25 22 59 28 75 14 36 12 26 38 145 12 52
21 108 20 125 0 16 -9 -13 -20 -65 -28 -141 -70 -268 -80 -243 -4 11 -3 38 2
59 29 113 23 114 -15 4 -46 -137 -102 -277 -118 -294 -15 -18 -8 -29 9 -15 15
13 15 12 5 -8 -7 -12 -15 -23 -19 -25 -5 -1 -16 -20 -27 -40 -10 -20 -54 -82
-97 -138 -44 -56 -76 -106 -73 -112 4 -6 2 -8 -3 -5 -10 6 -114 -109 -180
-196 -12 -16 -41 -50 -65 -76 -24 -25 -66 -79 -93 -119 -27 -40 -51 -70 -52
-65 -2 4 -7 33 -13 63 -9 53 -9 52 -5 -23 3 -43 7 -83 11 -88 3 -5 206 -9 484
-9 373 0 479 3 483 13 4 9 6 9 6 0 1 -8 15 -13 37 -13 29 0 34 3 30 18 -2 9
-12 44 -22 77 -9 33 -20 69 -24 80 -5 11 -13 38 -18 60 -6 22 -19 74 -30 115
-11 42 -28 125 -37 185 -18 113 -40 191 -30 105 3 -25 9 -72 14 -105 19 -114
22 -142 12 -115 -7 20 -9 21 -10 6 -1 -25 -10 -16 -16 15 -12 67 -48 238 -55
264 -15 49 -13 147 3 190 13 36 27 82 56 195 5 20 10 26 10 15 1 -26 19 -188
26 -242 6 -41 5 -43 -19 -43 -24 0 -25 3 -29 63 l-3 62 -1 -75 c-1 -41 2 -93
7 -115 l9 -40 -4 48 c-5 48 -4 48 23 45 22 -2 29 -10 38 -43 6 -22 16 -53 22
-68 7 -16 12 -32 12 -37 0 -20 53 -167 76 -210 48 -93 49 -92 24 75 -5 33 -12
112 -15 175 l-6 115 38 18 c63 30 142 113 171 180 16 37 15 48 -2 18 -8 -14
-16 -19 -20 -13 -3 6 2 25 13 44 10 18 22 44 25 58 4 17 1 14 -10 -9 -8 -19
-34 -61 -57 -94 -60 -86 -72 -106 -45 -75 26 31 38 35 38 14 0 -23 -67 -89
-81 -80 -8 4 -9 3 -5 -5 4 -6 0 -14 -11 -17 -10 -3 -32 -13 -50 -22 -18 -9
-35 -13 -38 -10 -4 3 10 14 29 23 36 17 61 40 32 29 -13 -5 -16 3 -16 44 0 71
56 397 140 807 20 102 24 132 15 123 -3 -3 -12 -38 -19 -79 -8 -41 -30 -155
-50 -254 -20 -99 -43 -216 -51 -260 -8 -44 -21 -118 -30 -165 -8 -47 -15 -104
-15 -126 0 -79 -10 -105 -46 -120 -51 -22 -57 -19 -51 24 9 57 17 170 11 147
-16 -55 -24 -31 -23 66 1 172 45 505 71 533 4 6 8 20 8 32 0 12 8 46 19 76 33
95 51 153 51 166 0 7 -10 17 -22 22 -23 9 -23 9 3 9 26 1 26 3 48 143 24 153
42 394 36 486 -2 31 -7 95 -10 142 -6 94 -26 218 -50 313 -18 71 -63 196 -77
214 -5 7 -6 18 -2 24 4 8 3 9 -4 5 -8 -5 -12 1 -12 16 0 18 -2 20 -10 8 -8
-12 -10 -11 -10 7 0 12 -6 34 -14 50 -8 15 -23 46 -34 68 -11 22 -23 50 -27
63 -20 69 -182 272 -216 272 -6 0 12 -21 40 -46z m68 -1556 c-3 -8 -6 -5 -6 6
-1 11 2 17 5 13 3 -3 4 -12 1 -19z m3 -187 c0 -18 -4 -14 -24 29 l-17 35 20
-25 c11 -14 21 -31 21 -39z m30 -52 c0 -11 -4 -17 -10 -14 -5 3 -10 15 -10 26
0 11 5 17 10 14 6 -3 10 -15 10 -26z m53 -26 c-7 -3 -13 -16 -13 -31 0 -20 -3
-23 -12 -14 -10 10 -10 17 0 32 6 10 9 27 5 37 -5 17 -4 17 13 -1 14 -13 15
-20 7 -23z m-70 -36 c3 -8 -5 -52 -17 -98 -44 -163 -136 -296 -265 -381 -46
-31 -45 -19 1 16 91 70 184 216 237 374 12 34 21 71 21 82 0 23 15 27 23 7z
m64 -659 c-3 -8 -6 -5 -6 6 -1 11 2 17 5 13 3 -3 4 -12 1 -19z m-622 -15 c-2
-10 -9 -43 -16 -73 l-13 -55 -7 35 c-5 22 -4 36 3 39 7 2 7 6 -1 10 -7 5 -3
16 11 34 26 32 27 33 23 10z m977 -156 c-5 -7 -12 -19 -14 -27 -5 -12 -7 -12
-13 3 -4 10 -2 24 5 32 14 17 36 9 22 -8z m-571 -60 c-10 -9 -11 -8 -5 6 3 10
9 15 12 12 3 -3 0 -11 -7 -18z m-810 -53 c9 -11 2 -9 -18 6 -18 13 -33 25 -33
27 0 8 38 -17 51 -33z m782 -9 c-3 -9 -8 -14 -10 -11 -3 3 -2 9 2 15 9 16 15
13 8 -4z m-673 -57 c0 -40 -3 -59 -10 -52 -9 9 -3 114 6 114 2 0 4 -28 4 -62z
m27 -10 c-3 -8 -6 -5 -6 6 -1 11 2 17 5 13 3 -3 4 -12 1 -19z m1053 -58 c0
-43 -2 -48 -26 -54 -34 -9 -40 -2 -48 56 l-7 47 33 3 c46 5 48 3 48 -52z
m-1041 -18 c1 -7 -3 -10 -9 -7 -5 3 -10 21 -9 38 1 31 1 31 9 7 4 -14 8 -31 9
-38z m1043 -95 c1 -23 3 -60 4 -82 1 -23 4 -52 8 -65 6 -22 6 -23 -5 -6 -12
20 -69 171 -69 185 0 4 14 8 30 9 28 1 30 -2 32 -41z m-448 -159 c-44 -54 -81
-91 -109 -111 -28 -20 -29 -20 -15 -2 8 11 23 26 32 33 10 7 37 33 60 58 43
46 65 61 32 22z m402 -383 c9 -38 -29 49 -60 135 -8 25 -18 72 -21 105 -5 52
0 42 35 -80 22 -77 43 -149 46 -160z m-106 40 c10 -12 10 -15 -4 -15 -9 0 -16
7 -16 15 0 8 2 15 4 15 2 0 9 -7 16 -15z m-55 -25 c3 -5 -1 -10 -9 -10 -9 0
-16 5 -16 10 0 6 4 10 9 10 6 0 13 -4 16 -10z m43 -11 c-21 -14 9 -11 35 2 12
7 19 8 15 4 -4 -4 -1 -13 7 -19 9 -7 12 -16 6 -25 -6 -9 -11 -10 -15 -2 -4 6
-1 11 6 11 9 0 9 3 -2 10 -20 13 -33 13 -25 0 9 -15 -8 -12 -33 6 -28 19 -29
34 -1 27 16 -4 17 -8 7 -14z"/>
<path d="M2234 3683 c-15 -21 -31 -40 -34 -43 -4 -3 -15 -20 -25 -37 -11 -18
-23 -33 -27 -33 -4 0 -8 -7 -8 -15 0 -8 -13 -21 -29 -27 -48 -21 -145 -109
-289 -261 -30 -31 -62 -59 -73 -62 -10 -4 -20 -15 -20 -26 -1 -10 -2 -25 -3
-31 -1 -7 4 -13 11 -13 6 0 15 -3 19 -7 4 -5 2 -8 -4 -8 -20 0 -13 -14 12 -26
22 -10 28 -8 58 30 51 64 224 249 215 231 -21 -44 -81 -260 -99 -354 -34 -177
-32 -405 5 -566 15 -67 36 -145 48 -174 23 -62 57 -131 64 -131 3 0 -3 17 -14
38 -113 223 -135 558 -60 939 32 160 123 371 223 513 44 63 67 100 62 100 -2
0 -16 -17 -32 -37z"/>
<path d="M826 3653 c-6 -14 -5 -15 5 -6 7 7 10 15 7 18 -3 3 -9 -2 -12 -12z"/>
<path d="M4486 3645 c-3 -9 -6 -24 -5 -33 0 -9 5 -4 10 12 9 32 6 48 -5 21z"/>
<path d="M805 3621 c-3 -5 -1 -12 5 -16 5 -3 10 1 10 9 0 18 -6 21 -15 7z"/>
<path d="M4451 3519 c-6 -18 -11 -37 -10 -43 0 -6 7 7 15 28 8 22 12 41 10 43
-2 2 -9 -10 -15 -28z"/>
<path d="M726 3482 c-10 -22 -15 -46 -11 -53 5 -7 4 -10 -3 -5 -18 11 -19 -17
0 -36 10 -10 19 -34 19 -55 1 -21 6 9 10 67 5 58 8 109 6 114 -2 5 -11 -10
-21 -32z"/>
<path d="M4431 3444 c0 -11 3 -14 6 -6 3 7 2 16 -1 19 -3 4 -6 -2 -5 -13z"/>
<path d="M4295 3421 c-3 -5 -1 -12 5 -16 5 -3 10 1 10 9 0 18 -6 21 -15 7z"/>
<path d="M4410 3389 c-6 -11 -10 -25 -7 -32 2 -6 9 3 15 21 12 36 8 42 -8 11z"/>
<path d="M4230 3390 c8 -6 24 -15 35 -21 16 -8 15 -6 -4 10 -13 12 -28 21 -35
21 -6 0 -4 -5 4 -10z"/>
<path d="M1407 3335 c-9 -19 -15 -35 -12 -35 7 0 37 61 33 66 -3 2 -12 -12
-21 -31z"/>
<path d="M2256 3353 c-6 -14 -5 -15 5 -6 7 7 10 15 7 18 -3 3 -9 -2 -12 -12z"/>
<path d="M4180 3335 c1 -5 7 -18 15 -28 13 -18 14 -18 24 2 15 28 14 36 -5 20
-13 -10 -17 -10 -25 2 -5 8 -9 10 -9 4z"/>
<path d="M2227 3303 c-4 -3 -7 -11 -7 -17 0 -6 5 -5 12 2 6 6 9 14 7 17 -3 3
-9 2 -12 -2z"/>
<path d="M4376 3295 c-9 -26 -7 -32 5 -12 6 10 9 21 6 23 -2 3 -7 -2 -11 -11z"/>
<path d="M1351 3244 c-17 -27 -35 -54 -40 -60 -5 -7 -7 -15 -4 -18 4 -3 1 -6
-6 -6 -7 0 -9 -4 -6 -10 3 -5 -1 -23 -10 -40 -8 -16 -13 -30 -10 -30 2 0 19
28 36 62 17 34 42 80 56 101 13 21 22 41 19 44 -3 3 -19 -17 -35 -43z"/>
<path d="M766 3269 c11 -6 28 -22 37 -37 9 -15 17 -21 17 -14 0 17 -45 62 -62
61 -7 0 -4 -5 8 -10z"/>
<path d="M3866 3253 c-6 -14 -5 -15 5 -6 7 7 10 15 7 18 -3 3 -9 -2 -12 -12z"/>
<path d="M2196 3225 c-3 -9 -6 -22 -5 -28 0 -7 5 -1 10 12 5 13 8 26 5 28 -2
2 -6 -3 -10 -12z"/>
<path d="M3112 3220 c0 -14 4 -36 8 -50 6 -20 8 -21 8 -5 0 11 -4 34 -8 50 -7
27 -8 27 -8 5z"/>
<path d="M1680 3220 c0 -5 6 -10 14 -10 8 0 18 5 21 10 3 6 -3 10 -14 10 -12
0 -21 -4 -21 -10z"/>
<path d="M4342 3206 c-17 -39 -15 -56 3 -22 9 16 14 34 12 39 -1 5 -8 -3 -15
-17z"/>
<path d="M2466 3205 c-9 -26 -7 -32 5 -12 6 10 9 21 6 23 -2 3 -7 -2 -11 -11z"/>
<path d="M1605 3190 c3 -6 1 -10 -4 -10 -6 0 -11 -14 -11 -32 0 -17 3 -28 7
-25 3 4 11 3 17 -2 8 -6 11 3 11 30 1 23 -4 40 -13 44 -7 2 -10 0 -7 -5z"/>
<path d="M585 3170 c-3 -5 -1 -10 4 -10 6 0 11 5 11 10 0 6 -2 10 -4 10 -3 0
-8 -4 -11 -10z"/>
<path d="M2440 3120 c-7 -28 -10 -53 -8 -55 2 -3 10 18 17 46 7 27 11 52 8 55
-3 3 -10 -18 -17 -46z"/>
<path d="M2835 3130 c-4 -23 -5 -44 -2 -46 3 -3 8 13 12 36 4 23 5 44 2 46 -3
3 -8 -13 -12 -36z"/>
<path d="M4316 3135 c-9 -26 -7 -32 5 -12 6 10 9 21 6 23 -2 3 -7 -2 -11 -11z"/>
<path d="M2172 3120 c0 -14 2 -19 5 -12 2 6 2 18 0 25 -3 6 -5 1 -5 -13z"/>
<path d="M1265 3119 c-4 -6 -5 -12 -2 -15 2 -3 7 2 10 11 7 17 1 20 -8 4z"/>
<path d="M1686 3111 c-3 -5 -3 -16 0 -25 8 -20 -3 -21 -23 -1 -12 13 -18 13
-30 3 -13 -11 -13 -13 2 -18 14 -5 11 -13 -19 -57 l-35 -51 30 -12 c16 -7 33
-19 37 -26 5 -9 21 5 53 49 25 34 49 68 53 75 7 12 -16 44 -31 41 -4 -1 -15
-1 -23 0 -12 1 -13 3 -1 10 8 5 9 11 3 15 -6 3 -13 2 -16 -3z"/>
<path d="M3122 3080 c0 -14 2 -19 5 -12 2 6 2 18 0 25 -3 6 -5 1 -5 -13z"/>
<path d="M4297 3093 c-4 -3 -7 -11 -7 -17 0 -6 5 -5 12 2 6 6 9 14 7 17 -3 3
-9 2 -12 -2z"/>
<path d="M490 3077 c-14 -6 -41 -23 -60 -38 -19 -14 -63 -40 -97 -57 -34 -18
-64 -36 -67 -41 -8 -12 99 32 122 50 40 33 109 77 137 87 21 7 24 10 10 11
-11 0 -31 -5 -45 -12z"/>
<path d="M2162 3060 c0 -14 2 -19 5 -12 2 6 2 18 0 25 -3 6 -5 1 -5 -13z"/>
<path d="M2422 3025 c0 -16 2 -22 5 -12 2 9 2 23 0 30 -3 6 -5 -1 -5 -18z"/>
<path d="M1227 2978 c-24 -57 -58 -160 -87 -263 -50 -181 -81 -523 -60 -668
14 -98 40 -198 50 -192 4 3 10 19 14 37 l7 33 14 -26 c10 -19 16 -77 19 -200
5 -182 26 -293 76 -407 11 -25 18 -47 16 -49 -2 -3 -7 5 -11 16 -3 12 -12 27
-18 34 -33 35 -117 262 -137 370 -7 37 -15 66 -17 63 -8 -8 47 -262 62 -285
26 -43 48 -335 31 -409 -7 -28 -6 -31 8 -26 15 6 16 0 11 -47 -16 -144 -59
-270 -132 -391 -45 -75 -77 -108 -48 -50 25 51 33 77 50 157 9 44 22 103 28
130 17 76 10 431 -14 630 -38 330 -44 370 -47 341 -2 -15 3 -78 12 -140 38
-271 50 -652 26 -838 -11 -94 -44 -211 -67 -243 -13 -19 -14 -18 -8 10 4 17
11 44 15 60 22 73 36 296 30 470 -3 87 -5 63 -10 -115 -6 -176 -12 -245 -28
-315 -26 -111 -57 -211 -79 -250 -17 -31 -103 -118 -110 -111 -2 2 4 19 15 37
34 64 83 223 81 265 -1 11 -5 1 -11 -21 -18 -73 -60 -200 -77 -228 -28 -50
-258 -136 -369 -139 -37 0 -52 -3 -34 -5 17 -2 32 -7 32 -11 0 -4 -59 -27
-130 -51 l-130 -45 57 -25 c32 -13 78 -28 103 -32 30 -5 6 -7 -71 -5 l-117 2
15 -23 15 -23 605 0 c523 0 604 2 593 15 -6 7 -19 11 -28 9 -14 -4 -13 -3 1 6
15 10 23 8 41 -9 17 -16 35 -21 79 -21 57 0 57 0 43 23 -60 92 -136 339 -136
441 1 83 16 210 29 246 6 14 15 44 21 67 9 38 15 43 48 51 20 5 59 14 86 21
27 6 51 10 53 7 3 -2 0 -37 -6 -77 -7 -39 -10 -73 -8 -76 7 -6 47 223 48 273
1 27 4 62 8 78 l6 28 45 -39 c84 -74 249 -172 290 -173 37 0 285 43 271 48 -7
2 -56 -3 -109 -12 -53 -9 -112 -19 -131 -22 -44 -7 -75 7 -196 85 -155 100
-365 285 -444 391 -14 19 -28 37 -32 40 -13 12 -80 132 -113 203 -29 64 -61
184 -52 195 2 1 19 -22 40 -52 44 -64 74 -92 141 -130 l50 -28 -30 29 c-87 85
-120 153 -155 318 -13 65 -22 253 -10 230 8 -16 9 -12 6 19 -2 21 -8 41 -14
45 -5 3 -11 13 -14 21 -10 31 4 -199 17 -285 16 -97 54 -221 79 -257 26 -37
18 -44 -15 -12 -47 45 -116 162 -138 234 -10 36 -29 119 -41 185 -20 104 -22
140 -16 275 8 212 37 357 112 553 40 103 40 128 1 35z m-12 -1333 c4 -27 4
-47 0 -44 -8 8 -19 106 -11 98 3 -3 8 -27 11 -54z m149 9 c5 -14 4 -15 -9 -4
-17 14 -19 20 -6 20 5 0 12 -7 15 -16z m76 -427 c0 -7 -4 -6 -10 3 -8 13 -10
12 -10 -4 0 -11 -3 -17 -6 -13 -4 3 -4 13 0 22 6 18 26 11 26 -8z m-100 -7
c-6 -11 -13 -20 -16 -20 -2 0 0 9 6 20 6 11 13 20 16 20 2 0 0 -9 -6 -20z m62
-62 c-6 -6 -7 0 -4 19 5 21 7 23 10 9 2 -10 0 -22 -6 -28z m-129 -83 c-3 -9
-8 -14 -10 -11 -3 3 -2 9 2 15 9 16 15 13 8 -4z m-32 -56 c-5 -13 -10 -19 -10
-12 -1 15 10 45 15 40 3 -2 0 -15 -5 -28z m-245 -515 c-4 -9 -9 -15 -11 -12
-3 3 -3 13 1 22 4 9 9 15 11 12 3 -3 3 -13 -1 -22z m-167 -251 c-44 -51 -116
-109 -164 -134 l-40 -21 35 30 c19 17 38 28 43 25 4 -2 7 -1 7 4 0 24 118 129
149 133 1 0 -12 -17 -30 -37z"/>
<path d="M2822 2875 c0 -93 3 -190 8 -215 22 -98 26 -137 19 -156 -6 -15 -8
-12 -8 14 -1 17 -5 32 -9 32 -4 0 -5 -30 -1 -67 4 -38 5 -72 2 -76 -3 -4 0
-13 5 -20 5 -7 12 -28 15 -47 9 -69 29 -155 38 -170 10 -16 10 -13 -11 119 -8
47 -7 66 1 72 8 5 8 8 0 13 -6 4 -11 21 -11 37 0 18 -4 28 -10 24 -12 -8 -12
42 0 70 7 17 9 17 9 3 1 -10 10 -45 22 -78 11 -33 18 -64 14 -70 -3 -5 -1 -10
5 -10 9 0 70 -119 70 -138 0 -4 29 -50 64 -102 35 -52 63 -96 62 -97 0 -1 -21
3 -46 7 -78 15 -244 12 -297 -6 -57 -20 -118 -66 -126 -95 -5 -17 -2 -20 14
-16 22 6 22 4 8 -46 -8 -28 -7 -42 1 -53 10 -11 9 -15 -4 -20 -13 -5 -16 -21
-16 -74 0 -68 14 -100 43 -100 6 0 3 6 -6 13 -27 19 -33 97 -11 143 17 36 19
37 24 14 4 -17 8 -21 14 -12 4 7 5 21 1 31 -3 12 0 21 10 25 19 7 45 -3 46
-18 0 -6 2 -24 2 -40 3 -55 58 -61 82 -8 22 49 71 14 62 -43 -7 -42 -3 -43 28
-9 20 21 25 23 25 10 0 -36 -30 -84 -76 -124 -34 -29 -43 -42 -31 -42 29 0
130 109 160 173 15 32 27 59 27 61 0 2 -16 7 -35 10 -26 5 -35 12 -35 27 0 12
8 23 19 26 21 5 18 28 -4 37 -10 3 -12 0 -8 -12 3 -9 -4 -5 -15 10 -12 14 -22
31 -22 36 0 6 -6 13 -12 15 -7 3 3 6 22 6 19 0 40 -3 47 -7 12 -8 45 -78 41
-86 -2 -2 0 -8 5 -12 4 -4 7 14 7 39 0 26 3 47 8 47 12 0 61 -35 78 -56 8 -10
13 -13 9 -6 -10 20 10 14 54 -19 38 -27 42 -28 36 -10 -5 17 -3 20 12 14 16
-6 16 -4 -2 18 -11 13 -24 27 -30 31 -15 11 7 10 43 -3 18 -6 29 -16 25 -22
-3 -6 -1 -7 5 -3 14 8 62 -22 62 -39 0 -7 -7 -18 -15 -25 -8 -7 -15 -23 -15
-37 0 -13 -7 -39 -14 -58 -8 -19 -11 -35 -6 -35 4 0 11 13 15 30 4 16 11 32
16 35 5 4 9 15 9 26 0 11 12 31 26 44 15 14 21 25 14 25 -8 0 -11 10 -8 30 5
34 -7 41 -15 9 -6 -21 -6 -21 -30 -2 l-25 18 26 5 c24 5 22 7 -20 19 -26 7
-53 20 -60 28 -6 8 -25 21 -41 30 -23 12 -27 17 -16 24 11 7 11 9 -3 9 -20 0
-32 25 -88 180 -21 58 -50 131 -64 162 -14 31 -26 63 -26 70 0 8 -4 18 -8 24
-8 8 -24 71 -51 204 -19 93 -11 -13 9 -125 11 -60 23 -129 27 -153 l6 -43 -26
12 c-14 6 -30 24 -36 38 -5 14 -19 51 -30 81 -44 116 -65 238 -71 420 l-6 175
-2 -170z m193 -629 c3 -27 11 -59 17 -70 7 -14 7 -18 0 -11 -12 12 -57 100
-66 132 -6 20 -5 21 18 10 19 -9 25 -22 31 -61z m75 -129 c0 4 7 0 15 -10 7
-11 11 -25 8 -33 -3 -8 -1 -14 4 -14 6 0 15 -11 21 -25 18 -40 -5 -29 -33 15
-14 22 -25 43 -25 46 0 4 -8 13 -17 21 -16 13 -16 13 5 3 12 -6 22 -7 22 -3z
m-223 -123 c-3 -3 -12 -4 -19 -1 -8 3 -5 6 6 6 11 1 17 -2 13 -5z m-9 -21
c-10 -2 -28 -2 -40 0 -13 2 -5 4 17 4 22 1 32 -1 23 -4z m49 -47 c-3 -8 1 -17
9 -20 8 -3 14 -11 13 -18 0 -10 -2 -10 -6 0 -2 6 -9 10 -14 6 -5 -3 -9 0 -9 7
0 7 -10 9 -30 6 -16 -4 -30 -3 -30 2 0 5 -9 11 -20 14 -11 3 -20 1 -20 -4 0
-5 5 -9 12 -9 6 0 9 -2 7 -4 -2 -2 -24 0 -49 4 -39 6 -40 8 -12 9 17 0 32 6
32 11 0 6 27 10 61 10 49 0 60 -3 56 -14z m-157 -38 c0 -6 -9 -8 -20 -5 -10 3
-18 1 -17 -3 1 -4 -1 -8 -5 -9 -8 -1 -8 6 -1 25 5 14 43 6 43 -8z m40 -7 c-8
-5 -26 -12 -40 -16 -24 -7 -24 -7 -5 9 11 8 29 15 40 15 16 0 17 -1 5 -8z m20
-31 c0 -5 -4 -10 -10 -10 -5 0 -10 5 -10 10 0 6 5 10 10 10 6 0 10 -4 10 -10z
m150 -50 c0 -5 -4 -10 -10 -10 -5 0 -10 5 -10 10 0 6 5 10 10 10 6 0 10 -4 10
-10z"/>
<path d="M3090 2101 c0 -6 4 -13 10 -16 6 -3 7 1 4 9 -7 18 -14 21 -14 7z"/>
<path d="M1210 3015 c-7 -9 -10 -18 -7 -21 3 -3 10 4 17 15 13 25 8 27 -10 6z"/>
<path d="M2146 2940 c-9 -94 10 -260 44 -395 20 -80 93 -242 141 -313 16 -24
29 -45 29 -48 0 -3 15 -23 33 -45 19 -21 46 -70 61 -109 15 -39 32 -67 37 -64
6 3 4 16 -6 30 -8 13 -20 36 -26 51 -8 23 -8 24 6 13 25 -21 17 2 -11 31 -24
25 -48 88 -61 161 -3 15 -9 26 -13 23 -5 -3 -6 3 -4 13 3 9 -6 53 -20 97 -25
81 -41 158 -56 275 -7 50 -7 37 -4 -55 5 -104 24 -250 40 -308 3 -9 10 -14 16
-11 6 4 8 2 5 -3 -4 -6 0 -16 8 -23 9 -8 13 -21 10 -34 -5 -17 -4 -18 5 -6 10
13 11 13 6 -2 -3 -10 -1 -20 4 -23 6 -4 10 -11 10 -17 0 -23 -81 98 -119 176
-83 173 -110 288 -120 506 l-7 165 -8 -85z"/>
<path d="M2405 2914 c-11 -113 1 -306 25 -414 11 -52 25 -115 29 -140 5 -25 9
-36 10 -25 1 17 3 18 12 5 9 -12 10 -11 4 5 -60 176 -79 312 -72 503 3 78 4
142 2 142 -2 0 -7 -34 -10 -76z"/>
<path d="M674 2965 c-4 -11 -17 -33 -29 -50 -22 -30 -38 -62 -40 -80 -3 -20
-19 -50 -29 -57 -8 -5 -7 -8 1 -8 13 0 71 83 99 143 14 30 23 37 48 38 l31 2
-30 4 c-16 3 -33 10 -37 16 -4 7 -9 4 -14 -8z"/>
<path d="M1180 2953 c-6 -16 -15 -37 -20 -48 -18 -39 -40 -98 -40 -107 0 -5 5
-6 10 -3 6 3 10 14 10 23 0 9 6 28 13 43 18 33 47 119 41 119 -2 0 -9 -12 -14
-27z"/>
<path d="M4235 2950 c-3 -5 -1 -10 4 -10 6 0 11 5 11 10 0 6 -2 10 -4 10 -3 0
-8 -4 -11 -10z"/>
<path d="M214 2915 c-18 -13 -18 -14 4 -8 12 3 25 9 28 14 8 14 -10 11 -32 -6z"/>
<path d="M1548 2912 c-47 -57 -120 -244 -153 -395 -19 -87 -37 -107 -95 -107
-52 0 -110 -11 -110 -21 0 -5 26 -8 59 -8 32 1 64 -2 70 -5 16 -10 14 -26 -4
-26 -9 0 -15 -9 -15 -21 0 -20 4 -21 45 -15 29 5 45 3 45 -3 0 -6 13 -8 33 -4
l32 6 -22 -24 c-22 -24 -53 -122 -53 -166 0 -14 6 -23 15 -23 8 0 15 -4 15
-10 0 -5 -7 -10 -16 -10 -13 0 -15 -7 -9 -37 11 -62 49 -148 66 -151 13 -2 10
9 -13 55 -25 49 -29 66 -24 107 7 60 42 96 85 87 25 -5 25 -6 4 -9 -13 -2 -23
-8 -23 -13 0 -5 11 -7 25 -3 22 6 25 3 25 -23 0 -37 31 -67 59 -58 11 3 25 21
32 39 10 28 17 33 43 32 26 -1 31 -5 32 -26 0 -14 1 -34 3 -45 2 -20 2 -20 16
-1 13 18 15 18 21 2 11 -28 -15 -94 -53 -137 -22 -24 -30 -39 -21 -39 22 0 54
39 83 102 25 55 46 146 28 121 -7 -9 -17 -7 -42 8 l-34 21 26 22 c25 21 25 23
6 34 -10 7 -19 18 -19 25 0 7 -9 18 -21 25 -12 8 -18 9 -14 3 3 -6 1 -11 -4
-11 -6 0 -11 7 -11 15 0 8 -4 15 -10 15 -5 0 -10 4 -10 10 0 10 88 -33 105
-52 7 -8 6 -9 -2 -4 -7 4 -13 2 -13 -3 0 -6 4 -11 10 -11 5 0 16 -12 24 -27
l15 -28 1 33 0 33 30 -16 c35 -18 41 -4 8 19 -12 9 -17 16 -11 16 6 0 19 -7
28 -16 24 -24 29 -10 9 23 -29 46 -74 82 -148 119 -38 19 -75 39 -83 46 -7 6
-30 12 -51 14 -20 1 -66 8 -100 15 l-64 12 6 31 c4 17 16 49 27 71 79 151 125
234 164 294 51 78 54 91 24 91 -11 0 -28 4 -38 10 -14 7 -22 5 -33 -8z m29
-631 c23 -6 45 -16 48 -21 11 -17 -33 -11 -70 10 -34 19 -71 18 -59 -2 3 -5
12 -7 20 -4 9 3 11 0 7 -11 -5 -13 -3 -14 18 -3 22 11 23 11 8 -5 -15 -15 -18
-15 -45 2 -25 15 -32 28 -25 46 2 7 56 0 98 -12z m-139 -47 c0 -15 -4 -22 -10
-16 -5 5 -6 16 -2 25 9 23 12 21 12 -9z m142 2 c0 -2 -7 -7 -16 -10 -8 -3 -12
-2 -9 4 6 10 25 14 25 6z m215 -14 c-3 -3 -11 0 -18 7 -9 10 -8 11 6 5 10 -3
15 -9 12 -12z m-305 -12 c0 -5 -7 -10 -15 -10 -8 0 -15 5 -15 10 0 6 7 10 15
10 8 0 15 -4 15 -10z m200 -10 c0 -5 -5 -10 -11 -10 -5 0 -7 5 -4 10 3 6 8 10
11 10 2 0 4 -4 4 -10z m-117 -7 c-7 -2 -19 -2 -25 0 -7 3 -2 5 12 5 14 0 19
-2 13 -5z"/>
<path d="M165 2890 c-3 -6 1 -7 9 -4 18 7 21 14 7 14 -6 0 -13 -4 -16 -10z"/>
<path d="M256 2884 c-23 -23 -20 -30 4 -9 11 10 20 20 20 22 0 7 -9 2 -24 -13z"/>
<path d="M3940 2880 c-4 -35 -4 -34 21 -145 22 -93 24 -119 22 -395 -1 -231
-4 -311 -17 -368 -9 -40 -16 -83 -15 -95 2 -47 39 143 45 231 4 51 11 89 15
85 11 -12 47 -265 60 -428 6 -77 9 -209 6 -293 -3 -85 -4 -152 -2 -150 7 7 35
184 34 213 -2 30 -2 30 -9 -5 -5 -23 -8 5 -9 84 -1 116 -6 169 -36 416 -8 63
-17 144 -20 180 -3 36 -10 81 -15 100 -10 44 -22 186 -15 178 3 -3 14 -50 25
-104 11 -54 27 -130 36 -169 31 -139 54 -302 55 -390 1 -63 4 -79 8 -55 12 59
25 -120 25 -330 -1 -146 1 -172 8 -125 12 78 4 324 -17 495 -8 74 -19 182 -24
240 -4 58 -9 87 -11 65 -2 -34 -4 -29 -15 35 -7 41 -21 107 -30 145 -22 96
-58 273 -89 435 -34 185 -33 180 -36 150z"/>
<path d="M4182 2838 c-18 -34 -30 -63 -28 -65 2 -2 18 23 35 58 41 80 35 86
-7 7z"/>
<path d="M811 2818 c-68 -219 -117 -350 -179 -470 -64 -124 -151 -266 -185
-299 -8 -8 -19 -25 -26 -37 -7 -12 -15 -21 -19 -18 -4 3 -13 -8 -20 -23 -7
-15 -23 -34 -37 -41 -14 -7 -23 -15 -21 -17 10 -10 129 64 165 102 23 24 47
48 54 52 13 8 48 50 82 97 41 57 58 73 34 31 -13 -22 -26 -42 -30 -45 -3 -3
-12 -23 -19 -45 -25 -78 -100 -205 -158 -267 -14 -15 -23 -30 -20 -33 13 -14
187 191 244 287 25 43 29 35 27 -55 -3 -82 -22 -174 -43 -202 -6 -8 -62 -161
-84 -230 -3 -11 19 33 51 98 31 64 60 117 65 117 32 0 -17 -175 -88 -313 -8
-16 -14 -35 -14 -43 0 -9 -4 -13 -9 -10 -5 4 -7 -4 -3 -16 3 -11 1 -19 -4 -16
-5 3 -14 0 -21 -7 -7 -8 -8 -15 -4 -17 11 -4 -86 -154 -130 -203 -55 -60 -64
-82 -16 -35 26 25 50 53 53 63 3 9 10 15 15 12 5 -4 9 -2 9 3 0 18 107 167
118 165 6 -2 9 4 6 11 -3 8 2 29 11 47 13 24 19 29 26 18 6 -10 14 0 29 34 12
27 24 46 27 44 10 -10 -17 -248 -32 -284 -19 -44 -19 -54 0 -29 25 33 6 -79
-22 -132 -22 -41 -141 -202 -149 -202 -8 0 13 39 43 78 18 24 33 49 33 56 0 6
5 17 11 23 14 14 70 145 65 150 -3 4 -14 -18 -50 -97 -9 -19 -21 -44 -28 -55
-7 -11 -30 -47 -50 -80 -59 -94 -91 -137 -148 -195 -28 -29 -192 -158 -236
-186 -16 -10 -53 -36 -82 -57 l-52 -39 0 -59 0 -58 26 24 c27 25 132 70 142
60 3 -3 0 -5 -6 -5 -17 0 -15 -30 2 -36 8 -3 12 -12 9 -20 -3 -8 0 -14 6 -14
7 0 35 -22 62 -49 l50 -49 -55 -43 c-30 -24 -53 -45 -51 -47 2 -2 30 14 62 37
32 23 67 47 77 54 11 6 34 24 51 40 18 15 36 27 39 27 4 0 19 11 34 25 33 31
42 16 10 -17 -13 -13 -39 -42 -59 -65 -20 -23 -60 -59 -90 -78 -32 -22 -44
-34 -29 -30 14 4 27 10 30 14 3 3 24 19 46 34 86 58 193 212 253 364 10 27 30
73 43 103 37 83 45 106 73 216 37 152 51 309 45 539 -7 281 -6 741 2 860 4 55
14 122 23 148 9 27 14 51 12 54 -3 2 -11 -13 -17 -34 -28 -86 -116 -249 -178
-331 -66 -87 -208 -229 -219 -218 -3 3 16 29 42 58 131 145 276 425 350 678
41 139 55 193 52 196 -2 3 -14 -28 -26 -68z m-116 -1674 c-8 -16 -15 -39 -15
-51 0 -13 -5 -23 -11 -23 -5 0 -7 6 -4 13 4 6 -2 1 -13 -12 -11 -14 -18 -32
-15 -40 4 -13 3 -14 -5 -2 -10 14 5 47 35 79 7 7 13 21 13 31 0 16 20 44 27
37 2 -2 -3 -16 -12 -32z m-77 -126 c-2 -7 2 -12 9 -13 6 0 15 -4 20 -9 5 -5 3
-6 -4 -2 -8 4 -13 2 -13 -5 0 -7 -6 -4 -14 6 -8 11 -12 23 -10 27 8 12 14 9
12 -4z m-5 -48 c7 -26 -54 -138 -93 -170 -3 -3 -16 -22 -29 -42 -12 -21 -48
-60 -79 -88 -57 -51 -91 -68 -56 -27 11 12 28 34 37 50 10 15 24 27 33 27 8 0
13 4 9 10 -7 12 31 51 41 42 4 -4 4 -1 -1 7 -4 7 -4 16 1 20 11 7 39 55 56 94
7 15 16 27 20 27 4 0 15 16 24 35 18 40 29 44 37 15z m-129 -335 c-4 -8 -11
-15 -16 -15 -6 0 -5 6 2 15 7 8 14 15 16 15 2 0 1 -7 -2 -15z m-118 -45 c6 -6
20 -8 30 -4 13 4 15 3 6 -3 -9 -7 -10 -17 -3 -36 7 -18 7 -28 -1 -33 -7 -4 -8
-3 -4 4 4 7 2 12 -4 12 -6 0 -13 -7 -16 -15 -4 -8 -10 -15 -16 -15 -5 0 -6 5
-2 12 4 7 3 8 -5 4 -20 -13 0 -28 28 -21 l26 6 -27 -19 c-22 -14 -25 -21 -15
-31 9 -10 8 -11 -6 -5 -10 3 -16 13 -13 20 3 8 -5 19 -17 25 -21 12 -21 11 -7
-7 15 -18 14 -18 -10 -1 -60 41 -131 59 -145 37 -3 -5 -15 -15 -25 -20 -17 -9
-19 -8 -13 7 10 29 25 45 73 75 40 26 51 29 99 23 30 -3 60 -10 67 -15z"/>
<path d="M2923 2845 c0 -27 2 -38 4 -22 2 15 2 37 0 50 -2 12 -4 0 -4 -28z"/>
<path d="M657 2848 c-10 -20 -22 -40 -27 -43 -6 -3 -15 -15 -21 -27 -7 -13 -7
-18 -1 -14 6 3 13 -2 15 -11 4 -15 5 -14 6 3 0 12 7 27 15 33 13 11 14 6 11
-31 -3 -31 -1 -39 6 -28 8 11 9 7 6 -17 -2 -18 0 -33 5 -33 4 0 8 -24 9 -52 0
-29 5 -62 10 -73 6 -13 7 3 3 50 -4 39 -9 117 -13 175 l-6 105 -18 -37z"/>
<path d="M2017 2780 c-11 -98 9 -365 32 -435 11 -33 17 -63 15 -67 -3 -4 -1
-8 5 -8 10 0 37 -68 33 -83 -1 -5 2 -6 7 -2 6 3 8 13 5 23 -4 13 -1 12 13 -4
10 -12 24 -30 31 -40 7 -11 4 -1 -7 21 -23 47 -32 82 -37 150 -3 28 -9 66 -14
85 -19 67 -57 278 -73 400 -1 14 -6 -4 -10 -40z"/>
<path d="M1097 2738 c-23 -62 -63 -220 -81 -317 -18 -96 -21 -304 -5 -401 6
-36 14 -96 18 -135 5 -38 9 -59 10 -45 1 21 3 22 12 10 8 -11 9 -8 4 15 -28
128 -44 243 -45 318 0 140 38 362 91 525 24 71 20 97 -4 30z"/>
<path d="M534 2684 c-33 -36 -63 -74 -68 -83 -5 -9 -27 -34 -47 -56 -21 -22
-36 -41 -33 -44 2 -2 13 6 24 19 11 13 22 21 24 19 3 -2 1 -60 -4 -129 -5 -69
-7 -126 -5 -128 2 -2 15 14 29 36 14 22 30 43 36 47 5 3 10 15 10 25 0 10 7
31 15 47 25 47 53 117 60 148 4 17 9 39 12 50 2 12 1 16 -4 9 -4 -5 -19 -18
-33 -28 -15 -11 -18 -16 -7 -12 17 5 17 4 3 -22 -8 -15 -17 -35 -20 -45 -3
-10 -10 -16 -15 -12 -6 3 -8 -12 -7 -34 3 -40 3 -40 -15 -18 -12 15 -18 17
-19 8 0 -8 8 -23 17 -33 16 -18 16 -18 0 -12 -10 3 -17 1 -17 -6 0 -6 -4 -9
-9 -6 -5 4 -12 0 -14 -6 -8 -19 -8 44 -1 81 4 19 11 28 18 24 6 -4 5 1 -3 11
-13 15 -11 20 15 44 16 15 38 43 48 63 26 49 71 100 81 91 5 -4 5 -1 1 6 -4 6
-9 12 -11 12 -1 0 -29 -30 -61 -66z"/>
<path d="M2932 2720 c0 -19 2 -27 5 -17 2 9 2 25 0 35 -3 9 -5 1 -5 -18z"/>
<path d="M1575 2700 c11 -5 27 -9 35 -9 13 -1 13 0 0 9 -8 5 -24 9 -35 9 l-20
0 20 -9z"/>
<path d="M1695 2670 c11 -5 27 -9 35 -9 13 -1 13 0 0 9 -8 5 -24 9 -35 9 l-20
0 20 -9z"/>
<path d="M2470 2658 c0 -27 39 -227 59 -302 20 -73 103 -266 115 -266 8 0 -11
48 -29 73 -8 12 -15 29 -15 39 0 10 -5 18 -11 18 -6 0 -9 9 -6 20 3 11 2 18
-3 15 -4 -2 -7 6 -7 20 0 13 -7 39 -16 57 -20 43 -53 174 -67 266 -11 64 -20
94 -20 60z"/>
<path d="M1775 2650 c17 -4 44 -8 60 -8 25 0 24 2 -10 9 -51 10 -92 10 -50 -1z"/>
<path d="M1878 2633 c7 -3 16 -2 19 1 4 3 -2 6 -13 5 -11 0 -14 -3 -6 -6z"/>
<path d="M1958 2633 c6 -2 18 -2 25 0 6 3 1 5 -13 5 -14 0 -19 -2 -12 -5z"/>
<path d="M3412 2540 c0 -14 2 -19 5 -12 2 6 2 18 0 25 -3 6 -5 1 -5 -13z"/>
<path d="M4066 2465 c3 -33 9 -76 14 -95 8 -34 8 -35 8 -5 1 17 -6 59 -13 95
l-14 65 5 -60z"/>
<path d="M450 2461 c0 -5 5 -13 10 -16 6 -3 10 -2 10 4 0 5 -4 13 -10 16 -5 3
-10 2 -10 -4z"/>
<path d="M1155 2390 c3 -5 8 -10 11 -10 2 0 4 5 4 10 0 6 -5 10 -11 10 -5 0
-7 -4 -4 -10z"/>
<path d="M237 2366 c-14 -13 -36 -31 -49 -40 -12 -9 -20 -18 -17 -20 2 -3 27
15 54 39 28 24 47 44 44 45 -3 0 -18 -11 -32 -24z"/>
<path d="M2142 2330 c0 -8 4 -26 8 -40 6 -20 8 -21 8 -5 0 11 -3 29 -8 40 -5
12 -8 14 -8 5z"/>
<path d="M4092 2300 c0 -19 3 -60 8 -90 6 -48 7 -50 8 -15 0 22 -3 63 -8 90
-6 40 -7 43 -8 15z"/>
<path d="M463 2273 c-6 -21 -17 -59 -24 -85 -7 -26 -16 -45 -20 -43 -6 5 -22
-115 -16 -122 2 -2 21 60 41 138 21 77 36 143 33 145 -2 2 -9 -13 -14 -33z"/>
<path d="M1273 2290 c-11 -16 -10 -18 2 -14 8 4 15 12 15 20 0 19 -3 18 -17
-6z"/>
<path d="M2470 2279 c0 -42 37 -210 49 -222 7 -7 6 7 -3 38 -8 28 -19 84 -26
125 -11 76 -20 102 -20 59z"/>
<path d="M2506 2277 c3 -10 9 -15 12 -12 3 3 0 11 -7 18 -10 9 -11 8 -5 -6z"/>
<path d="M2161 2234 c0 -11 3 -14 6 -6 3 7 2 16 -1 19 -3 4 -6 -2 -5 -13z"/>
<path d="M2530 2224 c0 -12 57 -104 65 -104 3 0 -9 24 -27 53 -38 63 -38 63
-38 51z"/>
<path d="M2170 2204 c0 -6 7 -31 15 -54 16 -45 12 -70 -4 -29 -6 15 -10 18
-10 8 -1 -9 17 -36 39 -60 40 -43 41 -44 24 -10 -9 19 -27 61 -40 95 -12 34
-23 56 -24 50z"/>
<path d="M2116 2172 c-5 -8 -4 -18 3 -25 6 -6 11 -18 11 -27 0 -9 7 -25 15
-36 15 -18 15 -18 6 6 -5 14 -13 41 -18 60 -6 24 -11 31 -17 22z"/>
<path d="M1446 2105 c-3 -8 -1 -15 3 -15 5 0 7 -9 4 -20 -4 -14 0 -20 11 -20
20 0 22 43 2 59 -10 9 -15 8 -20 -4z"/>
<path d="M2625 2080 c10 -11 20 -20 23 -20 3 0 -3 9 -13 20 -10 11 -20 20 -23
20 -3 0 3 -9 13 -20z"/>
<path d="M2660 2049 c0 -16 39 -54 47 -46 2 3 -7 17 -21 32 -16 17 -26 23 -26
14z"/>
<path d="M2520 2031 c0 -13 38 -91 45 -91 4 0 -34 91 -41 99 -2 2 -4 -1 -4 -8z"/>
<path d="M2259 2004 c6 -12 31 -43 57 -70 30 -32 35 -35 13 -9 -19 22 -44 54
-57 70 -13 17 -19 21 -13 9z"/>
<path d="M2330 1983 c0 -6 8 -17 18 -24 16 -13 16 -13 2 6 -8 11 -16 22 -17
24 -2 2 -3 0 -3 -6z"/>
<path d="M2496 1952 c-2 -4 0 -14 6 -22 8 -12 9 -12 5 2 -3 9 -1 19 6 22 9 3
9 5 0 5 -6 1 -14 -3 -17 -7z"/>
<path d="M2360 1925 c7 -8 17 -15 22 -15 6 0 5 7 -2 15 -7 8 -17 15 -22 15 -6
0 -5 -7 2 -15z"/>
<path d="M2530 1933 c0 -6 8 -17 18 -24 16 -13 16 -13 2 6 -8 11 -16 22 -17
24 -2 2 -3 0 -3 -6z"/>
<path d="M2590 1905 c13 -14 26 -25 28 -25 3 0 -5 11 -18 25 -13 14 -26 25
-28 25 -3 0 5 -11 18 -25z"/>
<path d="M3006 1887 c3 -10 9 -15 12 -12 3 3 0 11 -7 18 -10 9 -11 8 -5 -6z"/>
<path d="M353 1875 c-3 -9 -3 -18 -1 -21 3 -3 8 4 11 16 6 23 -1 27 -10 5z"/>
<path d="M320 1779 c0 -5 5 -7 10 -4 6 3 10 8 10 11 0 2 -4 4 -10 4 -5 0 -10
-5 -10 -11z"/>
<path d="M3237 1739 c-4 -15 -23 -41 -43 -59 -43 -37 -39 -53 5 -19 32 26 56
70 49 91 -3 7 -8 1 -11 -13z"/>
<path d="M3245 1684 c-27 -119 -102 -259 -169 -311 -14 -12 -26 -25 -26 -29 0
-13 77 65 131 132 49 62 60 81 37 68 -8 -4 -10 -3 -5 2 5 5 14 9 20 9 6 0 23
21 39 48 15 26 23 47 18 47 -5 0 -19 -18 -31 -40 -12 -22 -24 -38 -27 -36 -2
2 4 32 14 65 9 34 14 64 11 67 -3 4 -9 -7 -12 -22z"/>
<path d="M551 1553 c-10 -26 -10 -27 4 -9 8 11 15 23 15 28 0 15 -7 8 -19 -19z"/>
<path d="M486 1433 c-6 -14 -5 -15 5 -6 7 7 10 15 7 18 -3 3 -9 -2 -12 -12z"/>
<path d="M617 1443 c-4 -3 -7 -11 -7 -17 0 -6 5 -5 12 2 6 6 9 14 7 17 -3 3
-9 2 -12 -2z"/>
<path d="M214 1418 l-19 -23 23 19 c21 18 27 26 19 26 -2 0 -12 -10 -23 -22z"/>
<path d="M440 1366 c-32 -48 -42 -74 -12 -35 27 37 53 79 48 79 -3 0 -19 -20
-36 -44z"/>
<path d="M1033 1270 c0 -25 2 -35 4 -22 2 12 2 32 0 45 -2 12 -4 2 -4 -23z"/>
<path d="M4041 1243 c-12 -38 -25 -75 -27 -83 -5 -13 -4 -13 5 0 9 13 11 12
12 -5 1 -31 25 43 34 103 4 29 5 52 3 52 -2 0 -14 -30 -27 -67z"/>
<path d="M2943 1283 c9 -2 25 -2 35 0 9 3 1 5 -18 5 -19 0 -27 -2 -17 -5z"/>
<path d="M4121 1138 c-12 -57 -36 -130 -52 -164 -35 -73 -38 -97 -4 -34 29 53
71 186 80 253 12 78 1 53 -24 -55z"/>
<path d="M305 1200 c-16 -17 -24 -30 -19 -30 13 0 59 48 52 55 -2 3 -17 -9
-33 -25z"/>
<path d="M3276 1203 c-6 -14 -5 -15 5 -6 7 7 10 15 7 18 -3 3 -9 -2 -12 -12z"/>
<path d="M246 1155 c-8 -8 -19 -15 -25 -15 -6 0 -11 -5 -11 -11 0 -7 -8 -18
-17 -25 -10 -7 -13 -14 -8 -14 6 0 29 18 50 40 21 22 36 40 33 40 -4 0 -13 -7
-22 -15z"/>
<path d="M4011 1099 c-14 -42 -7 -49 9 -9 7 17 10 33 8 36 -3 3 -11 -9 -17
-27z"/>
<path d="M3220 1100 c-6 -11 -8 -20 -6 -20 3 0 10 9 16 20 6 11 8 20 6 20 -3
0 -10 -9 -16 -20z"/>
<path d="M135 1070 c3 -5 -11 -18 -32 -29 -21 -11 -33 -20 -28 -21 19 0 76 40
70 50 -3 6 -8 10 -11 10 -3 0 -3 -4 1 -10z"/>
<path d="M40 995 c-8 -9 -8 -15 -2 -15 12 0 26 19 19 26 -2 2 -10 -2 -17 -11z"/>
<path d="M119 934 l-24 -27 28 18 c15 9 27 21 27 26 0 14 -5 11 -31 -17z"/>
<path d="M4274 904 c-14 -33 -29 -63 -32 -68 -3 -5 0 -6 5 -3 6 4 16 20 23 37
7 16 20 30 29 30 13 0 14 2 2 9 -12 8 -13 12 -1 25 7 9 10 19 7 22 -3 4 -18
-20 -33 -52z"/>
<path d="M4347 909 c4 -13 8 -18 11 -10 2 7 -1 18 -6 23 -8 8 -9 4 -5 -13z"/>
<path d="M3839 903 c-13 -16 -12 -17 4 -4 16 13 21 21 13 21 -2 0 -10 -8 -17
-17z"/>
<path d="M59 883 c-13 -16 -12 -17 4 -4 9 7 17 15 17 17 0 8 -8 3 -21 -13z"/>
<path d="M4020 883 c0 -5 -28 -38 -62 -73 -44 -44 -51 -54 -23 -32 46 36 100
101 91 109 -3 4 -6 2 -6 -4z"/>
<path d="M4301 827 c-13 -21 -12 -21 5 -5 10 10 16 20 13 22 -3 3 -11 -5 -18
-17z"/>
<path d="M4371 834 c0 -11 3 -14 6 -6 3 7 2 16 -1 19 -3 4 -6 -2 -5 -13z"/>
<path d="M4230 770 c14 -4 32 -8 40 -9 13 -1 13 0 0 9 -8 5 -26 9 -40 9 l-25
-1 25 -8z"/>
<path d="M4215 740 c26 -11 45 -12 45 -2 0 4 -15 8 -33 9 -26 1 -28 0 -12 -7z"/>
<path d="M3840 720 c-9 -6 -10 -10 -3 -10 6 0 15 5 18 10 8 12 4 12 -15 0z"/>
<path d="M4233 713 c4 -3 1 -13 -5 -22 -10 -12 -8 -12 8 1 16 14 23 15 34 5
12 -10 12 -9 1 6 -7 9 -20 17 -29 17 -8 0 -12 -3 -9 -7z"/>
<path d="M4187 679 c7 -7 15 -10 18 -7 3 3 -2 9 -12 12 -14 6 -15 5 -6 -5z"/>
<path d="M4250 646 c0 -2 7 -7 16 -10 8 -3 12 -2 9 4 -6 10 -25 14 -25 6z"/>
<path d="M4160 600 c8 -5 22 -9 30 -9 10 0 8 3 -5 9 -27 12 -43 12 -25 0z"/>
<path d="M4220 580 c12 -7 12 -12 2 -22 -6 -6 -12 -16 -12 -20 0 -4 9 1 20 12
22 22 19 40 -8 40 -15 0 -15 -2 -2 -10z"/>
<path d="M616 555 c-9 -26 -7 -32 5 -12 6 10 9 21 6 23 -2 3 -7 -2 -11 -11z"/>
<path d="M576 514 c-23 -23 -20 -30 4 -9 11 10 20 20 20 22 0 7 -9 2 -24 -13z"/>
<path d="M4200 511 c0 -6 4 -13 10 -16 6 -3 7 1 4 9 -7 18 -14 21 -14 7z"/>
<path d="M3703 473 c8 -37 67 -166 73 -160 3 3 -3 22 -14 44 -11 21 -27 62
-36 91 -19 55 -32 70 -23 25z"/>
<path d="M4115 410 c-19 -8 -19 -9 3 -9 12 -1 22 4 22 9 0 6 -1 10 -2 9 -2 0
-12 -4 -23 -9z"/>
<path d="M4100 374 c-11 -12 -11 -18 1 -30 13 -12 18 -12 34 -1 11 9 16 20 12
31 -8 20 -31 21 -47 0z"/>
<path d="M4211 371 c-25 -19 -24 -51 2 -51 24 0 41 28 28 43 -6 8 -8 17 -4 20
13 14 -3 6 -26 -12z"/>
<path d="M3825 360 c3 -5 8 -10 11 -10 2 0 4 5 4 10 0 6 -5 10 -11 10 -5 0 -7
-4 -4 -10z"/>
<path d="M22 260 c0 -14 2 -19 5 -12 2 6 2 18 0 25 -3 6 -5 1 -5 -13z"/>
<path d="M150 195 c-7 -9 -8 -15 -2 -15 5 0 12 7 16 15 3 8 4 15 2 15 -2 0 -9
-7 -16 -15z"/>
<path d="M225 190 c-16 -7 -17 -9 -3 -9 9 -1 20 4 23 9 7 11 7 11 -20 0z"/>
<path d="M105 160 c-3 -6 1 -7 9 -4 18 7 21 14 7 14 -6 0 -13 -4 -16 -10z"/>
<path d="M66 138 c3 -5 10 -6 15 -3 13 9 11 12 -6 12 -8 0 -12 -4 -9 -9z"/>
<path d="M2230 73 l-35 -14 35 6 c19 3 39 10 44 15 13 13 0 11 -44 -7z"/>
<path d="M2650 78 c0 -3 -7 -22 -15 -42 -13 -30 -13 -36 -1 -36 14 0 33 67 22
78 -3 3 -6 3 -6 0z"/>
<path d="M2143 53 c9 -2 25 -2 35 0 9 3 1 5 -18 5 -19 0 -27 -2 -17 -5z"/>
<path d="M2078 43 c6 -2 18 -2 25 0 6 3 1 5 -13 5 -14 0 -19 -2 -12 -5z"/>
<path d="M25 30 c-3 -6 1 -7 9 -4 18 7 21 14 7 14 -6 0 -13 -4 -16 -10z"/>
<path d="M2026 31 c-4 -5 3 -7 14 -4 23 6 26 13 6 13 -8 0 -17 -4 -20 -9z"/>
<path d="M120 10 c0 -5 7 -10 16 -10 8 0 12 5 9 10 -3 6 -10 10 -16 10 -5 0
-9 -4 -9 -10z"/>
</g>
</svg>
