<?xml version="1.0" standalone="no"?>
<!DOCTYPE svg PUBLIC "-//W3C//DTD SVG 20010904//EN"
 "http://www.w3.org/TR/2001/REC-SVG-20010904/DTD/svg10.dtd">
<svg version="1.0" xmlns="http://www.w3.org/2000/svg"
 width="400.000000pt" height="400.000000pt" viewBox="0 0 400.000000 400.000000"
 preserveAspectRatio="xMidYMid meet">
<metadata>
Created by potrace 1.11, written by Peter Selinger 2001-2013
</metadata>
<g transform="translate(0.000000,400.000000) scale(0.100000,-0.100000)"
fill="#000000" stroke="none">
<path d="M1647 3888 c3 -62 12 -135 18 -162 11 -42 11 -52 -1 -64 -8 -8 -21
-12 -28 -9 -18 7 -44 -23 -41 -44 2 -10 -8 -22 -24 -29 l-26 -12 23 24 22 25
-30 0 c-20 0 -30 -5 -31 -16 0 -12 -3 -11 -9 4 -8 19 -8 19 -19 -5 -10 -23
-11 -23 -7 -2 2 12 0 20 -5 16 -5 -3 -9 -16 -9 -30 0 -14 -4 -23 -10 -19 -5 3
-7 12 -4 19 6 16 -21 40 -36 31 -5 -3 -10 -15 -10 -26 0 -10 -3 -19 -8 -19 -4
0 -7 -18 -7 -40 0 -26 4 -40 12 -40 7 0 13 -4 13 -10 0 -5 -5 -10 -11 -10 -5
0 -7 -4 -4 -10 7 -11 -39 -24 -60 -17 -8 4 -17 1 -21 -5 -4 -7 -3 -8 4 -4 7 4
12 3 12 -3 0 -5 -9 -13 -20 -16 -11 -3 -25 -15 -30 -26 -6 -10 -21 -19 -33
-19 -21 1 -22 1 -2 12 11 6 22 12 24 14 2 2 -3 14 -12 27 -8 13 -17 37 -19 53
-2 23 -8 29 -28 29 -17 0 -24 -5 -21 -15 6 -25 9 -45 10 -53 1 -5 5 -6 11 -2
6 4 6 15 0 30 -6 16 -6 25 0 25 12 0 33 -78 26 -97 -4 -8 -15 -17 -26 -20 -30
-8 -24 -21 9 -19 20 1 27 -2 24 -11 -3 -8 12 -5 41 10 25 12 46 28 46 36 0 10
-3 11 -14 2 -11 -9 -16 -9 -22 0 -4 8 -3 9 4 5 7 -4 12 -3 12 2 0 13 29 24 41
16 6 -3 5 -11 -2 -20 -6 -8 -8 -14 -3 -14 4 0 -18 -16 -50 -35 -32 -19 -62
-33 -67 -30 -4 3 -11 -10 -15 -30 -3 -19 -9 -35 -13 -35 -14 0 -51 41 -51 55
0 8 -7 15 -16 15 -8 0 -13 -4 -10 -9 6 -10 -39 -21 -94 -24 -30 -2 -35 1 -38
22 -3 21 -1 23 20 17 67 -18 71 -19 64 -7 -4 6 -13 11 -20 11 -8 0 -19 7 -26
15 -10 12 -7 17 16 26 16 6 40 12 54 14 14 2 42 7 63 10 20 3 37 10 37 16 0 6
-8 6 -21 -1 -11 -6 -30 -9 -42 -7 l-22 4 23 8 c20 7 32 27 15 24 -21 -3 -28 3
-30 28 -1 26 11 42 30 43 4 0 7 -10 8 -22 1 -21 2 -20 11 5 13 37 53 46 81 18
18 -18 20 -24 10 -40 -10 -16 -9 -22 4 -33 14 -11 16 -11 11 3 -5 13 1 18 23
23 26 5 28 8 17 25 -9 14 -16 17 -24 10 -8 -7 -15 -6 -20 3 -4 7 -3 10 1 5 5
-4 16 0 26 9 20 18 34 5 34 -35 1 -14 6 -26 13 -29 8 -2 10 2 5 14 -5 14 -3
16 11 11 15 -6 17 -4 11 10 -14 35 -18 56 -9 50 5 -3 9 5 9 19 -2 30 -15 45
-15 17 0 -12 -8 -24 -17 -28 -15 -5 -16 -4 -5 6 20 21 14 33 -8 14 -20 -18
-20 -17 -20 12 0 40 -18 53 -48 38 -13 -7 -20 -14 -14 -16 5 -2 12 -23 15 -47
5 -41 4 -43 -12 -28 -21 19 -62 21 -79 4 -8 -8 -15 -8 -24 0 -17 14 -41 11
-63 -8 -10 -8 -33 -20 -52 -26 -31 -11 -36 -10 -61 13 -38 35 -96 63 -132 63
-44 0 -95 -52 -161 -161 -54 -91 -95 -187 -84 -198 3 -3 8 5 11 16 8 29 83
177 116 229 37 57 86 97 112 90 12 -3 30 -6 42 -6 11 0 42 -14 67 -31 43 -28
46 -33 35 -52 -10 -18 -13 -19 -16 -5 -2 9 -9 19 -17 22 -9 3 -12 0 -9 -9 4
-10 -1 -12 -18 -8 -19 4 -18 2 8 -15 44 -28 54 -47 21 -39 -14 4 -33 10 -43
14 -14 5 -16 3 -11 -11 4 -9 3 -15 -2 -12 -4 3 -18 -8 -30 -24 -12 -17 -17
-30 -12 -30 5 0 13 5 16 10 3 6 23 10 45 10 47 0 60 -22 22 -39 -20 -10 -23
-14 -12 -21 8 -5 18 -6 24 -3 11 7 -1 -14 -23 -41 -9 -11 -10 -16 -3 -12 8 5
12 0 12 -16 0 -21 2 -20 19 8 25 41 41 51 41 25 0 -11 -12 -33 -26 -50 -14
-17 -27 -39 -29 -48 -1 -10 -7 -17 -13 -16 -6 2 -14 -6 -17 -17 -4 -11 -10
-20 -15 -20 -4 0 -11 -7 -14 -16 -4 -9 9 -2 29 15 20 17 42 31 50 31 8 0 18 8
24 17 10 18 70 23 121 11 14 -4 31 -7 38 -7 17 -1 15 -22 -4 -35 -13 -10 -10
-12 20 -13 20 -1 36 3 36 8 0 5 -3 8 -7 6 -5 -1 -10 3 -12 8 -3 6 10 20 28 32
38 26 98 24 118 -3 18 -25 17 -26 -22 -53 -27 -18 -33 -27 -24 -35 8 -8 14 -6
22 6 9 14 16 10 48 -34 21 -27 40 -67 44 -89 6 -33 9 -38 21 -28 12 9 12 15 2
27 -10 13 -10 14 0 8 7 -4 12 -2 12 4 0 6 5 8 10 5 6 -4 13 7 16 24 4 17 13
31 21 31 11 0 11 -4 3 -20 -46 -85 -85 -299 -72 -392 l7 -48 15 64 c13 55 13
63 2 53 -14 -11 -14 2 3 91 2 9 4 25 4 35 1 11 7 17 17 15 11 -2 27 18 51 62
35 66 36 49 2 -27 -11 -23 -19 -48 -19 -55 0 -8 -6 -20 -12 -28 -11 -12 -10
-12 5 -1 9 7 17 19 18 25 1 23 98 210 98 191 1 -12 -3 -26 -9 -33 -7 -8 -5 -8
5 0 10 9 17 52 25 142 5 71 10 138 9 150 -2 40 -19 -36 -25 -108 -3 -48 -10
-74 -22 -84 -9 -7 -11 -11 -4 -7 20 10 14 -12 -12 -41 -46 -51 -54 -62 -49
-67 9 -10 -17 -46 -37 -52 -11 -4 -18 -10 -15 -14 2 -5 -2 -17 -10 -27 -12
-17 -13 -14 -3 24 6 23 14 42 19 42 5 0 9 12 9 26 0 16 4 23 11 18 8 -4 9 1 4
16 -5 15 -3 20 3 16 10 -6 20 13 23 39 0 6 6 17 12 25 10 13 10 13 -4 2 -14
-10 -18 -10 -23 3 -3 9 -2 13 3 10 13 -7 20 6 23 44 1 18 6 35 10 37 14 9 9
24 -8 24 -12 0 -14 5 -9 18 15 34 17 60 6 80 -8 15 -8 22 2 25 6 3 2 6 -11 6
-13 1 -22 -2 -20 -6 2 -5 10 -20 17 -35 18 -35 8 -58 -23 -58 -21 0 -27 7 -37
39 -10 34 -14 38 -29 29 -12 -8 -23 -6 -43 7 -15 9 -27 22 -27 28 0 5 -10 2
-22 -9 l-23 -19 20 24 20 24 -20 -6 c-15 -6 -14 -1 8 18 15 14 36 25 45 24 13
0 12 -2 -4 -9 -35 -14 -39 -31 -6 -24 35 7 76 -11 65 -29 -4 -7 1 -5 11 2 17
14 17 15 -3 23 -27 9 -27 25 -1 33 23 7 27 22 5 22 -8 0 -12 -4 -10 -8 3 -3
-4 -9 -16 -12 -16 -4 -18 -3 -9 8 12 14 3 45 -13 45 -6 0 -8 2 -5 5 9 10 38
-7 31 -18 -4 -6 0 -8 10 -4 10 4 22 -2 31 -15 11 -16 19 -18 28 -11 8 6 21 7
33 2 28 -11 37 -11 30 1 -3 6 -16 10 -28 10 -21 1 -21 2 6 25 15 13 27 30 27
37 0 6 15 28 33 47 21 22 26 32 14 28 -11 -4 -16 -3 -12 3 4 6 12 10 18 8 22
-4 57 13 57 28 0 19 -30 18 -59 -3 -14 -9 -21 -11 -17 -5 12 20 66 43 89 40
16 -2 30 8 50 34 16 21 35 38 43 38 18 0 18 -4 -2 -43 -14 -27 -10 -25 26 16
23 26 50 47 60 47 9 0 29 9 44 21 17 13 36 19 52 16 19 -3 22 -1 14 8 -14 17
-30 14 -66 -10 -37 -25 -92 -45 -125 -45 -15 0 -29 -7 -33 -15 -10 -27 -36 -4
-68 64 -28 58 -33 78 -36 169 -2 56 -8 102 -12 102 -5 0 -6 -51 -3 -112z m67
-234 c3 -8 2 -12 -4 -9 -6 3 -10 10 -10 16 0 14 7 11 14 -7z m-14 -25 c0 -11
-11 -11 -29 0 -7 5 -10 14 -6 20 5 9 10 9 21 0 8 -6 14 -15 14 -20z m-69 -19
c6 0 7 4 4 10 -3 6 1 7 9 4 21 -8 20 -23 0 -31 -16 -6 -34 12 -33 32 0 6 3 4
6 -2 2 -7 9 -13 14 -13z m-311 -21 c0 -5 -4 -9 -10 -9 -5 0 -10 7 -10 16 0 8
5 12 10 9 6 -3 10 -10 10 -16z m136 9 c4 -6 3 -8 -4 -4 -5 3 -13 0 -15 -6 -3
-8 -6 -6 -6 5 -1 19 14 23 25 5z m42 -74 c-13 -13 -15 -13 -15 3 0 21 20 38
26 22 2 -6 -3 -17 -11 -25z m-35 -16 c-6 -12 -33 -10 -33 2 0 6 5 10 10 10 6
0 10 8 11 18 0 14 2 14 8 -3 5 -11 7 -23 4 -27z m77 22 c-6 -11 -15 -20 -21
-20 -6 0 -6 7 1 20 6 11 15 20 21 20 6 0 6 -7 -1 -20z m30 -10 c-8 -5 -17 -7
-19 -4 -3 3 1 9 9 14 8 5 17 7 19 4 3 -3 -1 -9 -9 -14z m-430 -7 c-8 -3 -21
-10 -28 -16 -9 -7 -11 -6 -6 7 3 9 16 16 28 15 14 0 16 -2 6 -6z m450 -17
c-20 -19 -65 -32 -55 -16 7 11 41 28 60 29 5 1 3 -5 -5 -13z m-515 -16 c-3 -5
-12 -10 -19 -10 -8 0 -22 -12 -31 -27 l-18 -28 25 23 25 23 0 -41 c0 -26 -6
-45 -19 -56 -20 -19 -39 -11 -20 8 9 9 8 16 -4 29 -25 27 -11 64 28 76 18 6
34 11 36 12 2 1 0 -3 -3 -9z m430 -10 c-3 -5 -12 -10 -18 -10 -7 0 -6 4 3 10
19 12 23 12 15 0z m-396 -3 c-2 -1 -12 -9 -22 -16 -15 -12 -17 -12 -11 3 3 9
13 16 22 16 8 0 13 -1 11 -3z m447 -16 c-8 -13 -66 -35 -73 -27 -10 9 2 17 39
26 18 4 34 8 36 9 2 1 1 -3 -2 -8z m-443 -30 c17 -6 16 -8 -7 -21 -29 -15 -39
-11 -30 14 7 17 10 18 37 7z m-103 -38 c-1 -18 -18 -35 -24 -24 -4 6 -4 16 -1
21 7 12 25 13 25 3z m365 -93 c3 -5 1 -10 -4 -10 -6 0 -11 5 -11 10 0 6 2 10
4 10 3 0 8 -4 11 -10z m-90 -20 c18 -20 18 -21 -6 -43 -28 -27 -59 -41 -59
-27 0 6 -4 10 -9 10 -5 0 -7 -9 -4 -20 7 -26 -14 -26 -47 0 -14 11 -29 20 -35
20 -15 1 -59 40 -52 47 7 6 131 -11 160 -22 15 -6 17 -3 13 18 -7 41 10 49 39
17z m115 -19 c0 -11 -14 -31 -31 -46 -29 -24 -33 -25 -50 -9 -10 9 -24 13 -31
9 -7 -4 4 9 24 29 42 41 88 49 88 17z m-339 -29 c-6 -2 -7 -10 -5 -17 4 -9 -1
-13 -15 -12 -21 1 -30 17 -10 17 6 0 8 9 4 21 -6 18 -5 19 14 7 12 -7 17 -14
12 -16z m20 -25 c-10 -9 -11 -8 -5 6 3 10 9 15 12 12 3 -3 0 -11 -7 -18z m379
8 c0 -11 -11 -15 -36 -15 -31 0 -35 2 -24 15 7 8 23 15 36 15 15 0 24 -6 24
-15z m-463 -21 c-3 -3 -12 -4 -19 -1 -8 3 -5 6 6 6 11 1 17 -2 13 -5z m538
-18 c0 -15 -78 -37 -110 -31 -22 4 -31 11 -31 25 0 19 6 21 71 18 38 -2 70 -7
70 -12z m-550 -14 c-3 -3 -11 0 -18 7 -9 10 -8 11 6 5 10 -3 15 -9 12 -12z
m545 -52 c0 -14 -32 -20 -46 -9 -12 10 -11 14 3 24 18 13 43 4 43 -15z m-175
10 c-3 -5 -2 -10 4 -10 5 0 11 5 13 11 11 32 148 -45 148 -83 0 -9 -3 -9 -8
-2 -4 6 -33 14 -65 17 -73 7 -108 33 -98 72 0 3 4 5 7 5 3 0 2 -4 -1 -10z m93
-92 c-3 -7 -13 -13 -23 -13 -10 0 -20 6 -22 13 -3 7 5 12 22 12 17 0 25 -5 23
-12z m132 -16 c0 -5 -7 -17 -15 -28 -14 -18 -14 -17 -4 9 12 27 19 34 19 19z"/>
<path d="M2211 3955 c-7 -27 -18 -57 -24 -65 -10 -13 -10 -13 5 -2 20 16 41
74 36 99 -2 10 -10 -4 -17 -32z"/>
<path d="M2271 3985 c-1 -11 -8 -29 -16 -39 -8 -11 -15 -25 -15 -30 0 -6 10 3
21 21 11 18 18 40 16 50 -4 16 -5 15 -6 -2z"/>
<path d="M1527 3961 c-14 -65 -8 -95 35 -168 47 -79 66 -92 23 -16 -32 56 -35
67 -44 153 -6 59 -7 62 -14 31z"/>
<path d="M2025 3718 c-31 -18 -42 -38 -61 -106 -24 -88 -12 -87 17 3 29 88 50
106 98 81 18 -10 41 -14 56 -10 20 5 31 -1 60 -31 19 -21 35 -33 35 -28 0 6
-7 16 -15 23 -20 17 -19 38 3 42 9 3 -14 4 -51 3 -53 -1 -72 2 -89 17 -24 21
-26 21 -53 6z"/>
<path d="M1534 3709 c-4 -7 -3 -9 4 -5 5 3 13 0 15 -6 4 -9 6 -10 6 -1 1 17
-16 25 -25 12z"/>
<path d="M2979 3695 c-37 -24 -88 -85 -72 -85 5 0 19 14 32 31 37 50 74 67
134 61 63 -5 104 -31 172 -108 61 -70 67 -78 101 -140 20 -37 25 -42 19 -19
-8 36 -77 135 -142 203 -79 83 -171 105 -244 57z"/>
<path d="M2263 3670 c14 -11 36 -20 49 -20 20 1 19 3 -12 20 -46 25 -69 25
-37 0z"/>
<path d="M1568 3653 c5 -21 7 -23 10 -9 2 10 0 22 -6 28 -6 6 -7 0 -4 -19z"/>
<path d="M2714 3658 l-19 -23 23 19 c21 18 27 26 19 26 -2 0 -12 -10 -23 -22z"/>
<path d="M2764 3656 c-3 -8 -4 -24 -2 -36 l3 -21 13 22 c10 15 10 19 1 13 -9
-5 -11 -1 -7 14 7 25 0 30 -8 8z"/>
<path d="M2500 3654 c0 -11 36 -46 60 -58 8 -4 5 1 -7 11 -12 10 -29 27 -37
38 -9 11 -16 15 -16 9z"/>
<path d="M1505 3639 c-11 -17 -2 -18 25 -4 24 14 24 14 3 15 -12 0 -25 -5 -28
-11z"/>
<path d="M2120 3645 c0 -4 12 -27 28 -51 35 -56 61 -67 31 -14 -23 40 -59 80
-59 65z"/>
<path d="M2311 3624 c0 -11 3 -14 6 -6 3 7 2 16 -1 19 -3 4 -6 -2 -5 -13z"/>
<path d="M2450 3594 c8 -10 15 -20 16 -22 1 -2 4 1 7 5 3 5 -4 15 -16 23 -21
12 -21 12 -7 -6z"/>
<path d="M2490 3580 c0 -16 -70 -40 -115 -40 -41 0 -44 -2 -50 -32 -4 -17 -16
-41 -27 -52 -27 -29 -19 -59 18 -71 17 -5 29 -15 27 -20 -2 -6 4 -20 12 -30
14 -19 16 -19 29 -2 20 26 27 20 10 -10 -15 -30 -18 -61 -8 -87 9 -24 105 -70
114 -55 13 19 37 3 49 -33 10 -30 9 -31 -4 -14 -11 14 -15 16 -15 5 0 -25 17
-42 35 -36 9 4 13 3 10 -3 -6 -10 20 -18 75 -22 30 -3 35 -7 35 -28 0 -38 27
-110 38 -103 6 4 7 1 2 -6 -4 -8 1 -18 14 -27 12 -9 19 -20 16 -25 -4 -5 0 -9
8 -9 8 0 18 14 21 33 7 31 8 30 32 -38 14 -38 32 -90 40 -115 12 -40 34 -83
34 -70 0 3 -9 34 -20 69 -11 36 -18 67 -16 69 2 1 21 -17 41 -42 21 -26 42
-46 48 -46 6 0 19 -7 29 -17 10 -9 21 -14 24 -11 3 3 -10 15 -29 27 -37 23
-100 94 -117 133 -6 12 -17 34 -25 48 -19 32 -19 59 0 66 8 4 15 14 16 23 0
13 2 13 6 1 18 -49 65 -140 74 -146 7 -4 10 -3 8 2 -30 59 -69 156 -69 170 0
8 8 14 18 14 14 0 14 2 3 9 -11 7 -4 10 25 13 28 2 46 -3 64 -17 l25 -20 -19
22 c-18 22 -18 23 3 66 26 54 26 55 -1 84 -33 35 -16 37 27 3 21 -16 41 -30
44 -30 3 1 -6 11 -21 23 -16 13 -28 28 -28 34 0 6 -7 13 -15 17 -8 3 -15 10
-15 15 0 9 7 10 90 12 l44 1 -23 19 c-13 11 -29 19 -37 19 -13 0 -15 8 -18 65
-1 11 4 24 9 28 6 5 -8 6 -30 2 l-40 -6 25 21 25 21 -57 -5 c-64 -5 -79 5 -52
35 10 11 12 19 6 19 -7 0 -12 -4 -12 -10 0 -5 -12 -10 -27 -10 l-27 0 22 -16
c21 -14 33 -52 12 -39 -6 4 -10 -7 -10 -24 0 -27 -4 -31 -27 -31 l-26 0 22
-24 c12 -13 21 -29 19 -37 -2 -7 7 -15 19 -17 14 -2 20 -8 16 -18 -3 -7 -9
-11 -14 -8 -5 3 -14 -7 -19 -22 -6 -15 -13 -25 -16 -22 -2 3 0 17 5 31 6 14 7
27 3 29 -14 6 -41 78 -36 92 3 8 2 21 -2 27 -5 9 -9 8 -13 -4 -6 -15 -10 -14
-46 8 -39 24 -40 24 -12 25 16 0 26 -4 22 -10 -3 -6 1 -7 9 -4 33 13 2 25 -58
23 -35 -1 -68 1 -74 5 -6 3 -13 2 -17 -4 -3 -5 3 -10 14 -10 35 0 33 -19 -4
-26 -19 -3 -38 -10 -41 -15 -3 -5 -11 -6 -17 -3 -7 4 -9 4 -5 0 4 -5 -2 -17
-12 -28 -10 -11 -16 -27 -13 -34 3 -8 -1 -21 -8 -30 -7 -9 -9 -18 -3 -22 11
-8 13 -72 2 -72 -4 0 -15 11 -24 25 -14 21 -14 28 -1 53 7 16 13 39 12 50 -2
27 -41 67 -48 49 -3 -7 -6 2 -6 20 -1 17 4 35 9 38 6 3 10 19 10 36 0 23 -4
29 -21 29 -16 0 -19 4 -13 23 8 26 3 21 38 39 23 12 25 16 12 21 -9 4 -16 2
-16 -3z m-40 -50 c0 -5 -10 -14 -21 -21 -17 -9 -23 -8 -30 2 -6 10 -2 16 14
21 33 9 37 9 37 -2z m-90 -15 c-7 -9 -15 -13 -17 -11 -7 7 7 26 19 26 6 0 6
-6 -2 -15z m30 -32 c0 -16 12 -17 28 -1 9 9 15 9 25 -1 10 -10 9 -11 -5 -6
-20 8 -25 -10 -5 -18 9 -4 9 -8 -1 -15 -11 -7 -11 -10 2 -15 9 -4 16 -11 16
-17 0 -6 -5 -8 -10 -5 -11 7 -35 -13 -38 -30 -1 -5 -8 -10 -14 -10 -17 0 -13
56 4 66 10 7 10 11 0 21 -6 6 -12 9 -12 5 0 -4 -9 -3 -20 3 -11 6 -20 15 -20
21 0 6 5 7 10 4 6 -3 10 -2 10 3 0 5 7 9 15 9 8 0 15 -6 15 -14z m-27 -58 c-3
-9 -13 -20 -22 -25 -14 -7 -17 -5 -15 13 1 12 3 28 3 35 1 10 6 10 21 2 11 -6
17 -16 13 -25z m-52 -8 c-1 -12 -15 -9 -19 4 -3 6 1 10 8 8 6 -3 11 -8 11 -12z
m629 -9 c0 -17 -3 -19 -9 -9 -5 7 -14 10 -20 7 -12 -8 -15 6 -4 17 14 15 33 6
33 -15z m-184 -21 l26 -23 -24 -11 c-22 -10 -29 -8 -53 14 -21 20 -24 27 -13
34 21 14 35 11 64 -14z m-308 -22 c-3 -3 -9 2 -12 12 -6 14 -5 15 5 6 7 -7 10
-15 7 -18z m233 3 c21 -11 36 -25 33 -30 -3 -4 -10 -5 -16 -2 -7 4 -8 2 -4 -5
4 -7 15 -11 24 -9 10 1 28 -4 42 -11 22 -11 23 -11 7 2 -17 14 -17 15 1 19 31
8 52 -10 52 -44 0 -30 -1 -31 -15 -12 -12 15 -14 16 -15 3 0 -20 -50 -65 -50
-45 0 8 5 18 10 21 18 11 11 31 -14 43 -23 10 -24 9 -22 -22 1 -18 5 -37 9
-43 8 -13 -30 -49 -41 -39 -4 4 1 13 10 20 17 12 16 14 -5 24 l-22 11 23 0
c24 1 27 8 13 30 -5 8 -16 11 -25 8 -14 -5 -15 -3 -6 13 13 25 13 27 -7 26
-26 -2 -63 -28 -63 -44 0 -24 -25 -7 -28 19 -3 30 32 89 54 89 9 0 34 -10 55
-22z m335 -9 c3 -6 2 -15 -4 -21 -6 -6 -11 -2 -15 11 -5 22 7 29 19 10z m-529
-25 c-3 -3 -12 -4 -19 -1 -8 3 -5 6 6 6 11 1 17 -2 13 -5z m526 -35 c-8 -8
-13 -7 -18 2 -5 8 -4 10 3 5 7 -4 12 -2 12 5 0 7 3 9 7 6 4 -4 2 -12 -4 -18z
m-376 -44 c-5 -28 -2 -35 14 -40 10 -4 19 -11 19 -17 0 -15 -53 0 -67 19 -16
21 -17 9 -2 -20 17 -32 30 -38 65 -32 20 4 35 0 43 -9 14 -17 11 -19 -51 -36
-42 -11 -51 -10 -73 4 -19 12 -25 25 -25 50 0 46 9 66 29 66 10 0 23 11 29 25
16 36 26 31 19 -10z m318 -4 c-3 -6 -11 -11 -17 -11 -6 0 -6 6 2 15 14 17 26
13 15 -4z m-140 -64 c-1 -77 -11 -83 -63 -40 -34 28 -40 38 -31 49 7 8 19 12
29 9 11 -4 20 3 28 21 20 42 37 24 37 -39z m-360 43 c3 -5 2 -10 -4 -10 -5 0
-13 5 -16 10 -3 6 -2 10 4 10 5 0 13 -4 16 -10z m500 -21 c12 -18 -3 -22 -20
-5 -14 14 -14 16 -1 16 8 0 18 -5 21 -11z m-451 -11 c-3 -4 -11 -8 -19 -8 -8
0 -16 4 -19 8 -2 4 6 8 19 8 13 0 21 -4 19 -8z m416 -29 c0 -5 -7 -9 -15 -9
-9 0 -12 6 -9 15 6 15 24 11 24 -6z m57 -31 c-3 -8 -6 -5 -6 6 -1 11 2 17 5
13 3 -3 4 -12 1 -19z m-128 -5 c-3 -20 2 -24 16 -13 9 8 15 9 15 2 0 -6 -5
-14 -10 -17 -13 -8 -42 14 -34 26 6 11 14 12 13 2z m66 -12 c-3 -6 -11 -8 -17
-5 -6 4 -5 9 3 15 16 10 23 4 14 -10z m-169 0 c-7 -11 -56 -21 -56 -10 0 6 13
11 53 18 5 0 6 -3 3 -8z m58 -111 c3 0 6 7 6 15 0 8 5 15 10 15 15 0 12 -10
-24 -73 -32 -56 -55 -64 -41 -14 4 15 3 18 -3 9 -7 -11 -12 -6 -20 17 -13 36
3 54 17 19 l10 -23 0 26 c1 33 13 44 27 25 6 -9 14 -16 18 -16z"/>
<path d="M2380 3385 c0 -8 4 -15 8 -15 5 0 9 7 9 15 0 8 -4 15 -9 15 -4 0 -8
-7 -8 -15z"/>
<path d="M2712 3579 c10 -5 21 -16 25 -24 7 -11 11 -11 28 2 14 11 15 14 3 10
-9 -3 -24 1 -35 8 -10 8 -22 14 -28 14 -5 0 -2 -4 7 -10z"/>
<path d="M2903 3568 c-34 -16 -28 -28 13 -28 33 0 35 -2 23 -17 -7 -10 -1 -7
14 7 19 17 40 24 67 25 41 0 53 10 23 18 -34 9 -118 5 -140 -5z"/>
<path d="M2611 3539 c-1 -8 11 -26 26 -40 14 -13 23 -18 19 -11 -4 6 -2 12 3
12 6 0 11 4 11 9 0 6 -9 8 -20 6 -15 -3 -24 3 -30 18 -6 14 -9 16 -9 6z"/>
<path d="M2750 3517 c0 -9 10 -21 23 -27 19 -9 20 -9 6 2 -9 7 -16 17 -17 21
-1 17 -12 20 -12 4z"/>
<path d="M2970 3501 c-33 -32 -39 -46 -12 -33 29 15 94 22 113 11 35 -18 20 9
-17 30 -45 27 -48 27 -84 -8z"/>
<path d="M3080 3526 c0 -2 12 -12 28 -21 l27 -18 -19 21 c-17 20 -36 29 -36
18z"/>
<path d="M2140 3494 c0 -10 5 -26 10 -34 8 -11 9 -7 4 15 -8 37 -14 45 -14 19z"/>
<path d="M1911 3430 c-16 -97 -13 -140 5 -65 24 104 26 122 17 128 -6 4 -15
-23 -22 -63z"/>
<path d="M2682 3495 c2 -1 19 -10 38 -20 27 -14 32 -15 23 -3 -7 8 -11 17 -9
19 2 2 -9 4 -25 5 -16 1 -28 0 -27 -1z"/>
<path d="M1673 3432 c-6 -10 -13 -33 -17 -52 -5 -30 -3 -28 14 14 21 50 23 69
3 38z"/>
<path d="M2830 3440 c0 -5 5 -10 11 -10 5 0 7 5 4 10 -3 6 -8 10 -11 10 -2 0
-4 -4 -4 -10z"/>
<path d="M2580 3417 c-20 -16 -21 -19 -5 -12 11 4 29 7 40 7 11 -1 15 2 10 6
-6 4 -12 10 -15 14 -3 3 -16 -3 -30 -15z"/>
<path d="M3370 3389 c0 -8 7 -23 15 -33 11 -14 15 -16 15 -5 0 8 -7 23 -15 33
-11 14 -15 16 -15 5z"/>
<path d="M2315 3360 c3 -5 8 -10 11 -10 2 0 4 5 4 10 0 6 -5 10 -11 10 -5 0
-7 -4 -4 -10z"/>
<path d="M1177 3353 c-12 -12 -7 -22 8 -17 8 4 15 10 15 15 0 11 -14 12 -23 2z"/>
<path d="M3410 3300 c5 -18 12 -35 16 -39 9 -9 -7 53 -17 63 -5 5 -4 -5 1 -24z"/>
<path d="M860 3282 c-19 -20 -43 -56 -52 -80 -19 -49 -6 -47 18 3 9 19 19 33
22 32 4 -1 7 1 7 5 0 4 16 23 34 42 21 22 29 36 20 36 -7 -1 -30 -17 -49 -38z"/>
<path d="M1565 3310 c-3 -6 1 -7 9 -4 18 7 21 14 7 14 -6 0 -13 -4 -16 -10z"/>
<path d="M1636 3295 c-3 -8 -1 -15 4 -15 6 0 10 7 10 15 0 8 -2 15 -4 15 -2 0
-6 -7 -10 -15z"/>
<path d="M1730 3200 c-28 -104 -40 -229 -37 -420 l1 -145 6 125 5 125 13 -58
c20 -84 25 -64 11 39 -14 106 -7 260 16 339 9 30 15 61 12 68 -2 6 -14 -27
-27 -73z"/>
<path d="M2031 3267 c0 -9 -5 -25 -10 -35 -11 -21 -29 -202 -19 -196 4 2 9
-10 11 -28 2 -18 5 -2 5 36 1 38 7 97 13 132 6 34 9 72 6 85 -3 15 -5 17 -6 6z"/>
<path d="M645 3239 c-4 -6 -5 -12 -2 -15 2 -3 7 2 10 11 7 17 1 20 -8 4z"/>
<path d="M1812 3205 c0 -16 4 -41 8 -55 l8 -25 0 25 c0 14 -4 39 -8 55 l-8 30
0 -30z"/>
<path d="M2117 3188 c-3 -24 -9 -61 -12 -83 -5 -29 -4 -36 4 -24 6 8 13 46 17
82 7 73 0 93 -9 25z"/>
<path d="M3441 3220 c0 -8 6 -26 15 -40 l15 -25 -7 25 c-3 14 -10 32 -15 40
-7 13 -8 13 -8 0z"/>
<path d="M616 3188 c-67 -91 -213 -345 -203 -354 2 -3 24 33 47 78 24 46 71
126 105 178 33 52 65 101 69 108 12 21 0 13 -18 -10z"/>
<path d="M2163 3152 c-2 -52 -1 -54 8 -24 8 28 13 32 24 22 8 -7 12 -17 8 -24
-3 -6 -3 -8 2 -4 4 4 14 0 21 -10 12 -16 13 -16 14 0 0 9 -7 24 -16 32 -8 9
-12 21 -8 27 4 8 3 9 -4 5 -6 -4 -17 2 -24 14 -7 11 -15 20 -18 20 -3 0 -6
-26 -7 -58z"/>
<path d="M1243 3154 c-34 -15 -36 -38 -5 -48 13 -4 12 -5 -3 -4 -37 1 -46 -2
-40 -12 12 -19 -143 -48 -173 -31 -12 7 -10 12 12 26 15 10 44 22 64 26 l37 7
-38 1 c-21 0 -47 6 -59 12 -25 13 -26 13 -32 -40 -4 -37 -2 -44 14 -48 11 -3
20 -11 20 -18 0 -18 27 -27 33 -11 3 7 27 19 54 26 26 7 54 18 61 23 20 16 26
0 10 -25 -9 -13 -40 -34 -69 -48 -30 -13 -55 -25 -57 -26 -7 -4 28 -62 40 -66
8 -3 3 -14 -14 -31 -32 -32 -82 -36 -154 -11 -67 23 -65 10 3 -16 41 -15 69
-20 97 -16 36 6 38 5 33 -16 -56 -220 -43 -466 27 -553 l25 -30 -9 38 c-7 33
-3 146 6 156 1 1 8 -17 14 -40 13 -53 31 -97 80 -204 54 -115 63 -150 57 -212
-3 -32 -2 -51 4 -48 5 4 9 35 9 71 0 67 -3 75 -75 229 -76 163 -88 227 -75
398 5 73 16 154 24 182 8 27 13 51 11 53 -7 8 -26 -49 -35 -103 -4 -27 -15
-91 -24 -140 -8 -50 -14 -116 -12 -148 3 -55 -6 -81 -18 -55 -3 7 -4 0 -1 -16
17 -85 17 -91 7 -81 -41 41 -40 443 2 480 13 11 46 61 46 69 0 3 -8 3 -17 0
-10 -2 -8 1 5 7 12 7 22 16 22 20 0 4 12 -3 26 -16 33 -30 44 -31 77 -5 14 11
33 20 42 20 9 0 23 6 30 14 12 12 11 19 -5 51 -11 21 -22 57 -26 81 -3 24 -12
49 -20 55 -20 16 -17 29 5 29 32 0 43 24 21 43 -11 9 -21 17 -23 16 -1 0 -16
-7 -34 -15z m25 -110 c2 -20 11 -53 21 -73 14 -27 17 -41 9 -55 -14 -26 -28
-2 -22 39 4 24 3 26 -5 10 -5 -11 -14 -39 -20 -62 -9 -31 -17 -43 -30 -43 -34
0 -42 67 -16 139 15 43 15 44 15 62 0 6 7 9 14 6 10 -4 13 -1 9 9 -3 9 0 12 9
9 8 -3 15 -22 16 -41z m-92 -100 c-7 -19 -60 -13 -64 7 -1 9 11 22 30 31 31
15 33 14 36 -4 2 -11 1 -26 -2 -34z"/>
<path d="M3025 3132 c11 -13 29 -28 40 -34 21 -11 18 -8 -30 32 -29 24 -29 24
-10 2z"/>
<path d="M3196 3137 c3 -10 9 -15 12 -12 3 3 0 11 -7 18 -10 9 -11 8 -5 -6z"/>
<path d="M3120 3136 c0 -2 8 -10 18 -17 15 -13 16 -12 3 4 -13 16 -21 21 -21
13z"/>
<path d="M2381 3127 c-1 -8 62 -174 86 -227 21 -47 43 -131 37 -142 -3 -4 -1
-8 5 -8 5 0 12 -10 14 -22 4 -19 5 -18 6 6 2 41 -26 141 -59 211 -66 142 -89
190 -89 182z"/>
<path d="M3295 3098 c-4 -9 0 -32 8 -50 9 -18 17 -40 19 -48 3 -9 7 -4 10 13
3 15 1 27 -3 27 -5 0 -9 10 -9 23 0 12 -4 29 -10 37 -8 12 -10 12 -15 -2z"/>
<path d="M706 3084 c-3 -9 -6 -28 -5 -42 0 -26 1 -25 14 8 7 19 14 38 14 43 2
14 -17 7 -23 -9z"/>
<path d="M2241 3080 c0 -18 27 -79 28 -64 1 7 -6 27 -14 45 -8 19 -14 27 -14
19z"/>
<path d="M854 3058 l-19 -23 23 19 c21 18 27 26 19 26 -2 0 -12 -10 -23 -22z"/>
<path d="M935 3054 c-9 -15 -12 -23 -6 -20 11 7 35 46 28 46 -3 0 -12 -12 -22
-26z"/>
<path d="M1840 3073 c0 -5 7 -18 15 -29 13 -18 14 -18 8 4 -5 22 -23 41 -23
25z"/>
<path d="M2112 3045 c-14 -30 -16 -75 -3 -75 8 0 25 90 18 97 -2 2 -9 -8 -15
-22z"/>
<path d="M2280 3046 c0 -8 4 -17 9 -20 5 -3 7 -16 4 -29 -3 -15 -2 -18 5 -9 7
10 13 7 25 -12 10 -14 17 -29 17 -33 0 -4 14 -28 30 -52 17 -24 46 -77 65
-118 25 -51 44 -77 65 -88 17 -9 30 -20 30 -26 0 -6 -3 -9 -7 -7 -94 48 -190
64 -242 40 -27 -12 -37 -13 -53 -3 -17 11 -19 10 -14 -7 4 -11 0 -24 -9 -32
-8 -7 -12 -16 -9 -21 3 -5 1 -9 -5 -9 -5 0 -14 12 -19 28 -6 15 -11 22 -11 16
-1 -16 28 -84 36 -84 3 0 3 3 0 6 -15 15 17 44 65 60 105 35 191 20 262 -45
16 -14 26 -21 23 -15 -3 5 -7 34 -8 62 -2 30 -7 52 -13 51 -26 -3 -36 2 -36
19 0 10 -4 22 -8 27 -5 6 -15 30 -22 55 -16 51 -40 101 -40 83 0 -6 9 -33 20
-59 11 -26 19 -48 17 -50 -7 -7 -107 188 -101 198 5 7 2 8 -6 3 -10 -6 -12 -4
-7 9 4 10 3 15 -3 11 -6 -3 -19 10 -31 29 -23 39 -29 44 -29 22z"/>
<path d="M900 3009 c0 -5 5 -7 10 -4 6 3 10 8 10 11 0 2 -4 4 -10 4 -5 0 -10
-5 -10 -11z"/>
<path d="M1960 3018 c0 -17 43 -77 52 -72 5 3 3 11 -5 17 -8 7 -21 23 -31 37
-9 13 -16 21 -16 18z"/>
<path d="M3334 2984 c-10 -30 -9 -51 6 -113 47 -195 55 -276 55 -551 0 -146 3
-245 7 -220 3 25 7 108 8 185 2 111 4 131 11 96 13 -66 19 -73 14 -16 -22 242
-53 480 -79 603 l-11 53 -11 -37z"/>
<path d="M3481 3000 c0 -14 4 -34 9 -45 8 -18 9 -18 9 5 0 14 -4 34 -9 45 -8
18 -9 18 -9 -5z"/>
<path d="M850 2967 l-25 -32 27 20 c15 11 28 26 28 33 0 17 -1 15 -30 -21z"/>
<path d="M1636 2963 c-26 -87 -24 -215 4 -288 6 -16 9 -39 6 -51 -7 -24 -66
-64 -97 -64 -12 0 -17 -4 -14 -11 9 -14 -34 -59 -57 -59 -10 0 -18 -4 -18 -10
0 -5 8 -10 18 -10 14 0 17 -7 14 -39 -2 -22 1 -48 7 -58 9 -15 10 -12 11 21 0
71 59 135 153 165 20 7 37 15 37 18 0 3 -9 16 -19 29 -25 32 -34 102 -33 252
0 67 -1 122 -3 122 -2 0 -6 -8 -9 -17z"/>
<path d="M2561 2964 c0 -11 3 -14 6 -6 3 7 2 16 -1 19 -3 4 -6 -2 -5 -13z"/>
<path d="M651 2963 c-1 -6 -4 -20 -7 -30 -5 -17 -5 -17 6 0 6 10 9 23 6 30 -3
9 -5 9 -5 0z"/>
<path d="M1909 2954 c6 -12 34 -41 63 -64 36 -28 42 -31 18 -9 -19 18 -48 47
-63 63 -20 22 -26 24 -18 10z"/>
<path d="M2396 2935 c-3 -8 -1 -15 4 -15 6 0 10 7 10 15 0 8 -2 15 -4 15 -2 0
-6 -7 -10 -15z"/>
<path d="M1020 2919 c-17 -13 -18 -17 -5 -10 33 17 51 31 40 31 -5 0 -21 -10
-35 -21z"/>
<path d="M2571 2925 c0 -11 6 -51 14 -90 9 -41 16 -125 16 -200 1 -110 -2
-139 -20 -185 -25 -64 -55 -121 -89 -170 l-25 -35 31 32 c17 17 33 29 37 25 3
-4 3 1 0 9 -3 8 3 23 13 32 19 17 19 17 16 -9 -1 -15 1 -23 6 -18 13 15 50
254 50 327 0 71 -24 241 -40 279 -8 21 -9 21 -9 3z"/>
<path d="M3128 2915 c-26 -26 -28 -63 -4 -95 6 -8 0 -6 -12 4 -14 12 -20 26
-17 35 5 12 1 11 -12 -3 -12 -12 -14 -20 -6 -23 35 -13 105 -80 110 -105 3
-15 10 -28 15 -28 6 0 8 -15 6 -34 -2 -19 -1 -33 3 -31 20 13 47 -253 30 -297
-20 -52 -26 -28 -23 84 2 62 1 110 -3 107 -5 -6 -9 -36 -30 -219 -4 -30 -13
-73 -20 -95 -8 -22 -26 -80 -40 -130 -15 -49 -31 -101 -35 -115 -5 -14 -18
-63 -30 -109 -19 -77 -20 -85 -5 -108 9 -13 20 -21 25 -18 5 3 11 1 15 -4 6
-11 -27 -7 -48 5 -6 4 -4 -2 7 -14 10 -12 24 -19 30 -15 6 3 8 2 3 -2 -4 -5 0
-16 8 -25 12 -14 12 -24 -1 -85 -9 -39 -17 -109 -17 -156 -2 -80 -3 -86 -22
-82 -11 3 3 -8 30 -22 71 -38 110 -69 135 -110 12 -20 25 -34 27 -31 3 3 -9
23 -26 44 -30 39 -31 42 -31 144 0 92 28 301 44 326 8 14 36 151 44 217 4 33
7 166 6 295 0 183 -4 248 -16 295 -9 33 -26 96 -38 140 -12 44 -26 84 -31 90
-5 5 -9 16 -9 25 0 8 -14 42 -31 74 l-32 60 23 18 c12 10 18 18 12 18 -5 0
-21 -11 -34 -25z m32 -120 c11 -13 10 -14 -4 -9 -9 3 -16 10 -16 15 0 13 6 11
20 -6z m67 -567 c-3 -22 1 -88 9 -147 17 -128 7 -279 -26 -411 -14 -57 -23
-134 -27 -232 -6 -162 -5 -160 -65 -104 -24 21 -28 33 -28 78 0 64 26 240 39
265 9 18 24 105 41 234 5 36 11 120 14 185 2 65 7 127 10 137 3 9 8 24 11 33
10 31 27 1 22 -38z m20 -60 c-3 -8 -6 -5 -6 6 -1 11 2 17 5 13 3 -3 4 -12 1
-19z m20 -20 c-3 -8 -6 -5 -6 6 -1 11 2 17 5 13 3 -3 4 -12 1 -19z m-10 -60
c-3 -8 -6 -5 -6 6 -1 11 2 17 5 13 3 -3 4 -12 1 -19z m-148 -277 c1 -33 1 -34
-19 -16 -23 21 -25 39 -8 103 l13 47 6 -50 c4 -27 8 -65 8 -84z m-26 -48 c-3
-7 -8 -13 -12 -13 -4 0 -8 6 -8 13 0 8 6 14 13 14 7 0 10 -6 7 -14z"/>
<path d="M2311 2914 c0 -11 3 -14 6 -6 3 7 2 16 -1 19 -3 4 -6 -2 -5 -13z"/>
<path d="M2110 2890 c0 -16 4 -30 8 -30 5 0 7 14 4 30 -2 17 -6 30 -8 30 -2 0
-4 -13 -4 -30z"/>
<path d="M643 2853 c-5 -21 -14 -37 -20 -36 -10 2 -37 -86 -73 -237 -11 -47
-25 -160 -32 -251 -11 -158 -10 -171 12 -285 22 -115 57 -230 67 -221 2 3 -3
21 -11 41 -8 19 -18 57 -21 83 -4 26 -14 75 -22 108 -27 107 -1 371 58 585 11
41 26 102 34 135 7 33 16 72 20 88 4 15 5 27 2 27 -3 0 -9 -17 -14 -37z"/>
<path d="M940 2880 c-8 -5 -10 -10 -5 -10 6 0 17 5 25 10 8 5 11 10 5 10 -5 0
-17 -5 -25 -10z"/>
<path d="M1813 2772 c2 -106 4 -125 20 -133 9 -6 17 -15 17 -22 1 -17 30 -50
65 -73 26 -16 28 -16 16 -1 -17 21 -8 22 24 1 15 -10 25 -12 25 -5 0 6 -14 18
-31 26 -17 9 -40 32 -51 51 -11 19 -22 34 -24 34 -6 0 8 -34 21 -50 21 -27 26
-40 16 -40 -16 0 -59 73 -71 122 -6 24 -15 81 -20 128 l-8 85 1 -123z"/>
<path d="M3510 2866 c0 -8 4 -17 9 -20 5 -4 7 3 4 14 -6 23 -13 26 -13 6z"/>
<path d="M793 2859 c9 -6 15 -14 12 -19 -3 -5 0 -12 6 -16 8 -4 9 -3 5 4 -11
18 29 15 44 -3 9 -11 7 -19 -14 -40 -14 -14 -22 -25 -17 -25 11 0 51 44 51 56
0 6 -12 16 -27 23 -16 8 -36 17 -45 22 -24 12 -37 11 -15 -2z"/>
<path d="M2257 2845 c-8 -8 -17 -12 -20 -9 -3 3 -13 2 -21 -3 -12 -7 -8 -9 18
-10 26 -1 35 4 39 18 6 23 3 24 -16 4z"/>
<path d="M2775 2828 c7 -18 27 -62 43 -98 41 -92 55 -160 50 -245 -6 -96 -35
-154 -116 -232 -65 -64 -71 -88 -8 -33 23 21 36 26 38 18 3 -7 19 16 37 52 93
185 95 244 17 425 -7 17 -24 56 -37 87 -13 32 -27 58 -31 58 -4 0 -1 -15 7
-32z"/>
<path d="M581 2829 c-5 -13 -16 -42 -25 -63 -27 -64 -12 -51 18 15 15 34 25
64 22 66 -3 3 -10 -5 -15 -18z"/>
<path d="M2951 2818 c13 -18 26 -35 29 -38 34 -32 53 -62 43 -68 -9 -5 -6 -12
8 -21 17 -10 20 -10 13 1 -5 7 -9 18 -9 23 0 14 -88 134 -98 134 -5 1 2 -14
14 -31z"/>
<path d="M2015 2820 c-13 -21 29 -117 75 -170 l30 -35 -32 72 c-18 39 -36 69
-39 67 -9 -5 -30 56 -23 67 3 5 3 9 0 9 -3 0 -8 -5 -11 -10z"/>
<path d="M2070 2822 c23 -14 77 -25 65 -14 -5 6 -26 13 -45 16 -23 5 -30 4
-20 -2z"/>
<path d="M396 2803 c-6 -14 -5 -15 5 -6 7 7 10 15 7 18 -3 3 -9 -2 -12 -12z"/>
<path d="M2042 2795 c0 -16 2 -22 5 -12 2 9 2 23 0 30 -3 6 -5 -1 -5 -18z"/>
<path d="M471 2784 c-12 -15 -21 -32 -21 -38 1 -11 24 15 41 47 14 25 3 21
-20 -9z"/>
<path d="M1972 2785 c0 -16 2 -22 5 -12 2 9 2 23 0 30 -3 6 -5 -1 -5 -18z"/>
<path d="M2375 2780 c9 -16 20 -30 26 -30 5 0 0 14 -13 30 -12 17 -23 30 -25
30 -2 0 3 -13 12 -30z"/>
<path d="M3025 2800 l-30 -8 27 -1 c15 0 30 4 33 9 3 6 5 9 3 9 -2 -1 -16 -5
-33 -9z"/>
<path d="M3540 2733 c18 -79 47 -159 56 -150 3 2 -5 28 -16 58 -12 29 -26 76
-31 103 -5 28 -13 54 -18 59 -4 4 0 -27 9 -70z"/>
<path d="M790 2775 c0 -8 2 -15 4 -15 2 0 6 7 10 15 3 8 1 15 -4 15 -6 0 -10
-7 -10 -15z"/>
<path d="M1528 2778 c-16 -5 -28 -14 -28 -19 0 -5 -6 -9 -14 -9 -14 0 -30 -29
-21 -38 3 -3 5 0 5 6 0 6 20 23 45 38 25 14 45 28 45 30 0 2 -1 4 -2 3 -2 0
-15 -5 -30 -11z"/>
<path d="M2131 2765 c0 -16 6 -43 14 -60 17 -39 18 -23 0 40 -11 40 -14 44
-14 20z"/>
<path d="M1010 2775 c0 -5 5 -17 10 -25 5 -8 10 -10 10 -5 0 6 -5 17 -10 25
-5 8 -10 11 -10 5z"/>
<path d="M376 2755 c-3 -9 -6 -22 -5 -28 0 -7 5 -1 10 12 5 13 8 26 5 28 -2 2
-6 -3 -10 -12z"/>
<path d="M800 2744 c-9 -3 -21 -14 -28 -25 -11 -18 -11 -24 4 -40 9 -10 22
-19 28 -19 6 0 4 5 -4 10 -17 11 -10 13 14 4 9 -3 13 -11 9 -18 -4 -6 1 -5 10
3 12 9 17 10 17 2 0 -6 -7 -14 -15 -18 -17 -6 -45 -64 -45 -92 0 -9 -9 -35
-20 -56 -15 -28 -19 -50 -15 -72 5 -26 3 -33 -11 -33 -11 0 -15 -6 -12 -18 3
-10 -1 -24 -9 -31 -10 -9 -13 -24 -9 -50 4 -23 3 -31 -2 -23 -27 39 -21 -326
6 -373 11 -20 11 -20 17 0 4 11 9 27 12 35 3 8 22 -35 42 -96 20 -61 41 -118
47 -125 29 -35 55 -119 61 -191 l6 -78 -41 -60 c-23 -33 -44 -71 -48 -85 -3
-14 -10 -28 -15 -31 -5 -3 -9 -17 -8 -32 0 -21 4 -16 19 24 16 46 45 101 60
114 3 3 19 23 36 44 16 22 47 53 69 69 22 17 32 27 23 24 -12 -4 -18 1 -21 16
-4 21 -4 21 -6 -1 0 -13 -14 -36 -30 -51 l-28 -26 -7 120 c-6 108 -10 124 -34
160 -15 22 -33 46 -40 53 -20 22 -38 63 -51 117 -7 27 -17 56 -23 63 -10 12
-6 143 7 211 5 23 4 24 -5 6 -12 -24 -4 132 10 180 4 17 11 46 14 65 6 32 5
33 -8 15 -22 -29 -20 1 4 50 11 22 19 48 20 57 0 9 4 19 10 23 5 3 6 13 3 21
-5 13 -1 15 18 10 21 -6 22 -6 6 4 -18 11 -18 13 5 37 23 24 23 25 4 39 -18
13 -39 18 -58 15 -14 -2 -8 12 14 36 12 13 20 22 17 22 -2 -1 -11 -3 -19 -5z
m-70 -696 c0 -72 -3 -129 -6 -126 -9 10 -8 258 1 258 3 0 5 -59 5 -132z"/>
<path d="M1985 2712 c6 -44 52 -111 95 -140 19 -13 34 -28 33 -33 -2 -5 2 -9
7 -9 15 0 12 16 -6 31 -8 7 -13 21 -11 31 3 10 2 16 -3 13 -4 -3 -10 5 -13 17
-4 12 -9 20 -12 16 -3 -3 -1 -18 5 -34 11 -27 11 -28 -9 -10 -13 11 -18 26
-15 42 3 15 -3 36 -14 52 -11 15 -22 34 -25 42 -4 10 -6 9 -6 -6 -1 -28 19
-85 28 -79 4 2 8 -2 8 -10 0 -31 -28 11 -61 95 -3 8 -4 0 -1 -18z"/>
<path d="M400 2684 c-12 -19 -20 -37 -18 -39 2 -3 15 13 27 35 28 50 21 53 -9
4z"/>
<path d="M1331 2638 c2 -112 14 -131 15 -23 0 52 -3 95 -8 95 -4 0 -8 -33 -7
-72z"/>
<path d="M3065 2690 c10 -11 20 -20 23 -20 3 0 -3 9 -13 20 -10 11 -20 20 -23
20 -3 0 3 -9 13 -20z"/>
<path d="M2766 2687 c3 -10 9 -15 12 -12 3 3 0 11 -7 18 -10 9 -11 8 -5 -6z"/>
<path d="M1770 2684 c0 -6 7 -19 16 -30 14 -18 14 -18 3 6 -14 31 -19 36 -19
24z"/>
<path d="M433 2668 c-5 -7 -18 -35 -28 -63 -10 -27 -26 -66 -35 -85 -10 -19
-21 -51 -24 -70 -6 -33 -6 -33 13 10 26 59 89 220 86 220 -1 0 -7 -6 -12 -12z"/>
<path d="M3114 2626 c-45 -61 -75 -190 -58 -254 6 -20 12 -11 41 55 29 66 34
87 31 140 -1 34 1 65 5 70 9 8 14 9 42 12 24 2 17 16 -8 17 -15 1 -32 -11 -53
-40z"/>
<path d="M2275 2630 c-4 -6 -1 -17 5 -25 10 -11 7 -15 -14 -21 -30 -7 -41 -38
-32 -87 7 -31 37 -77 52 -77 4 0 -1 9 -10 19 -9 10 -19 33 -21 50 -6 43 18 51
50 17 13 -14 29 -26 35 -26 21 0 50 21 50 35 0 8 6 12 14 9 11 -4 13 0 9 15
-9 36 14 23 30 -16 15 -35 16 -36 16 -11 1 37 -12 68 -42 101 -22 23 -34 27
-81 27 -30 0 -58 -5 -61 -10z m52 -45 c-11 -24 -37 -35 -37 -16 0 6 34 36 47
40 0 1 -4 -10 -10 -24z m30 -81 c-3 -3 -12 -4 -19 -1 -8 3 -5 6 6 6 11 1 17
-2 13 -5z"/>
<path d="M1711 2616 c-18 -21 -2 -46 29 -46 15 0 43 -3 61 -6 l34 -6 -40 22
c-22 12 -47 23 -55 25 -8 1 -14 8 -12 14 3 15 -3 14 -17 -3z"/>
<path d="M1810 2610 c6 -11 13 -20 16 -20 2 0 0 9 -6 20 -6 11 -13 20 -16 20
-2 0 0 -9 6 -20z"/>
<path d="M1950 2622 c0 -12 19 -26 26 -19 2 2 -2 10 -11 17 -9 8 -15 8 -15 2z"/>
<path d="M2784 2528 c0 -64 -6 -105 -17 -132 -10 -22 -15 -41 -12 -44 22 -22
57 198 38 246 -6 15 -9 -7 -9 -70z"/>
<path d="M2942 2606 c7 -8 16 -12 21 -9 11 7 -2 23 -19 23 -12 0 -12 -2 -2
-14z"/>
<path d="M3202 2585 c0 -16 2 -22 5 -12 2 9 2 23 0 30 -3 6 -5 -1 -5 -18z"/>
<path d="M317 2580 c-9 -14 -17 -32 -17 -40 0 -9 -4 -20 -9 -25 -13 -15 -55
-145 -48 -151 3 -4 13 20 23 52 20 69 42 122 62 146 8 9 12 22 10 29 -3 8 -10
4 -21 -11z"/>
<path d="M925 2590 c4 -6 -2 -30 -13 -53 -66 -144 -91 -501 -45 -662 7 -27 18
-67 24 -88 11 -46 58 -141 65 -134 3 3 -4 23 -17 44 -18 31 -21 47 -15 78 7
38 8 39 23 20 16 -20 16 -20 8 0 -5 11 -9 40 -10 65 -1 35 -5 44 -18 42 -9 -1
-18 7 -22 18 -4 12 -9 19 -11 17 -3 -3 2 -21 10 -42 12 -29 13 -41 4 -58 -10
-20 -13 -16 -30 43 -10 36 -18 76 -18 90 l1 25 14 -25 c20 -35 18 -19 -5 49
-21 62 -20 64 14 229 8 40 19 78 23 85 4 6 10 -42 13 -108 l6 -120 2 140 c2
118 5 147 22 180 l20 39 1 -194 c2 -241 8 -212 11 55 l3 199 25 13 c14 7 19
13 12 13 -8 0 -26 8 -40 18 -34 24 -65 35 -57 22z m-18 -802 c-3 -8 -6 -5 -6
6 -1 11 2 17 5 13 3 -3 4 -12 1 -19z"/>
<path d="M1010 2581 c0 -6 5 -13 10 -16 6 -3 10 1 10 9 0 9 -4 16 -10 16 -5 0
-10 -4 -10 -9z"/>
<path d="M1980 2586 c0 -2 15 -13 33 -25 31 -20 31 -21 7 -22 -22 0 -21 -2 10
-13 19 -7 46 -16 60 -20 l25 -7 -25 15 c-21 13 -22 15 -6 16 10 0 -8 13 -40
30 -63 32 -64 32 -64 26z"/>
<path d="M2952 2505 c-7 -44 -15 -114 -17 -155 -4 -57 0 -43 15 60 11 74 19
144 17 155 -1 11 -8 -16 -15 -60z"/>
<path d="M3013 2554 c-3 -8 -1 -25 4 -37 8 -18 10 -16 9 16 -1 41 -4 45 -13
21z"/>
<path d="M1668 2544 c-11 -3 -17 -14 -15 -27 1 -16 -4 -23 -20 -25 -47 -7 -38
-123 12 -156 13 -9 37 -15 52 -15 20 1 22 3 8 6 -56 12 -75 26 -81 59 -6 35 4
80 13 57 3 -7 10 -13 17 -13 7 0 22 -11 33 -24 15 -17 28 -23 42 -19 22 6 38
44 26 62 -3 6 -2 11 4 11 5 0 16 3 25 6 13 5 16 -1 16 -25 0 -17 5 -31 10 -31
22 0 -3 80 -34 109 -23 22 -76 34 -108 25z m87 -44 c3 -5 -1 -10 -9 -10 -9 0
-16 5 -16 10 0 6 4 10 9 10 6 0 13 -4 16 -10z m-65 -20 c0 -11 -4 -20 -9 -20
-14 0 -23 18 -16 30 10 17 25 11 25 -10z m44 -72 c-3 -4 -12 -8 -20 -8 -8 0
-14 4 -14 8 0 4 9 8 19 8 11 0 17 -4 15 -8z"/>
<path d="M676 2525 c-3 -9 -6 -22 -5 -28 0 -7 5 -1 10 12 5 13 8 26 5 28 -2 2
-6 -3 -10 -12z"/>
<path d="M2900 2534 c0 -7 7 -27 15 -45 10 -24 14 -28 14 -14 0 21 -28 78 -29
59z"/>
<path d="M2125 2510 c-4 -6 3 -10 14 -10 25 0 27 6 6 13 -8 4 -17 2 -20 -3z"/>
<path d="M3625 2505 c35 -94 59 -171 71 -230 18 -85 32 -253 27 -315 -3 -40
-2 -42 9 -22 15 30 -5 279 -32 377 -27 100 -59 188 -72 200 -8 7 -9 5 -3 -10z"/>
<path d="M3311 2494 c0 -11 3 -14 6 -6 3 7 2 16 -1 19 -3 4 -6 -2 -5 -13z"/>
<path d="M1351 2489 c-3 -48 43 -218 56 -206 1 2 -4 28 -14 58 -9 30 -22 79
-28 109 -7 30 -13 48 -14 39z"/>
<path d="M3000 2479 c0 -13 -4 -18 -12 -13 -7 4 -8 3 -4 -5 11 -17 37 6 29 25
-7 20 -13 17 -13 -7z"/>
<path d="M3141 2473 c0 -12 -6 -25 -12 -28 -22 -14 -62 -123 -69 -190 -4 -38
-11 -79 -14 -90 -3 -11 3 -2 14 20 11 22 20 47 20 56 0 9 7 34 16 55 9 22 17
58 18 81 1 28 8 47 20 56 12 9 16 22 13 38 -4 22 -4 22 -6 2z"/>
<path d="M3602 2470 c0 -14 2 -19 5 -12 2 6 2 18 0 25 -3 6 -5 1 -5 -13z"/>
<path d="M687 2458 c-3 -13 -13 -52 -22 -88 -9 -36 -18 -76 -21 -90 -4 -22 -3
-22 10 5 8 17 17 51 21 78 4 26 11 44 16 41 5 -3 9 13 9 35 0 46 -5 52 -13 19z"/>
<path d="M2425 2440 c-16 -17 -16 -20 -3 -15 9 4 19 13 22 21 7 19 2 18 -19
-6z"/>
<path d="M412 2420 c0 -14 2 -19 5 -12 2 6 2 18 0 25 -3 6 -5 1 -5 -13z"/>
<path d="M2978 2418 c3 -14 1 -19 -6 -14 -8 5 -10 2 -6 -8 5 -13 8 -13 20 -1
18 17 18 31 0 38 -10 4 -12 0 -8 -15z"/>
<path d="M652 2400 c0 -14 2 -19 5 -12 2 6 2 18 0 25 -3 6 -5 1 -5 -13z"/>
<path d="M2308 2413 c6 -2 18 -2 25 0 6 3 1 5 -13 5 -14 0 -19 -2 -12 -5z"/>
<path d="M3321 2404 c0 -11 3 -14 6 -6 3 7 2 16 -1 19 -3 4 -6 -2 -5 -13z"/>
<path d="M3135 2399 c-4 -6 -5 -12 -2 -15 2 -3 7 2 10 11 7 17 1 20 -8 4z"/>
<path d="M273 2277 c-18 -56 -35 -111 -37 -122 -2 -11 -5 -5 -6 15 -2 34 -3
34 -10 -10 -7 -42 9 -183 23 -196 3 -3 8 34 12 83 7 103 20 179 41 245 9 26
14 57 12 68 -2 11 -18 -26 -35 -83z"/>
<path d="M395 2325 c-8 -67 4 -223 16 -203 5 7 9 24 9 39 0 14 4 29 9 35 12
13 20 114 10 144 -6 21 -7 22 -9 5 -1 -11 -2 -27 -1 -35 2 -13 1 -13 -9 0 -5
8 -7 27 -4 43 3 15 1 27 -4 27 -5 0 -13 -25 -17 -55z"/>
<path d="M2494 2363 c-3 -10 -12 -33 -20 -52 -16 -36 -12 -55 4 -24 13 23 32
93 26 93 -3 0 -7 -8 -10 -17z"/>
<path d="M3383 2340 c0 -25 2 -35 4 -22 2 12 2 32 0 45 -2 12 -4 2 -4 -23z"/>
<path d="M1786 2355 c-11 -8 -15 -15 -9 -15 6 0 16 7 23 15 16 19 11 19 -14 0z"/>
<path d="M2971 2354 c0 -11 3 -14 6 -6 3 7 2 16 -1 19 -3 4 -6 -2 -5 -13z"/>
<path d="M3573 2320 c0 -25 2 -35 4 -22 2 12 2 32 0 45 -2 12 -4 2 -4 -23z"/>
<path d="M583 2295 c0 -33 2 -45 4 -27 2 18 2 45 0 60 -2 15 -4 0 -4 -33z"/>
<path d="M1738 2333 c7 -3 16 -2 19 1 4 3 -2 6 -13 5 -11 0 -14 -3 -6 -6z"/>
<path d="M2961 2314 c0 -11 3 -14 6 -6 3 7 2 16 -1 19 -3 4 -6 -2 -5 -13z"/>
<path d="M1480 2308 c0 -9 5 -20 10 -23 13 -8 13 5 0 25 -8 13 -10 13 -10 -2z"/>
<path d="M3117 2288 c-39 -88 -60 -153 -61 -191 -1 -23 -5 -62 -9 -87 -4 -25
6 5 22 65 16 61 35 124 42 140 7 17 13 32 14 35 21 65 16 92 -8 38z"/>
<path d="M181 2284 c0 -11 3 -14 6 -6 3 7 2 16 -1 19 -3 4 -6 -2 -5 -13z"/>
<path d="M2942 2232 c-7 -32 -11 -76 -11 -98 1 -23 3 -29 5 -14 2 14 9 56 15
93 14 84 7 97 -9 19z"/>
<path d="M3433 2245 c0 -27 2 -38 4 -22 2 15 2 37 0 50 -2 12 -4 0 -4 -28z"/>
<path d="M1417 2254 c3 -7 9 -12 15 -11 5 1 18 -13 29 -32 10 -19 22 -37 27
-40 5 -3 17 -21 27 -38 13 -22 21 -29 27 -20 6 9 12 9 28 0 11 -7 28 -13 37
-12 16 0 15 2 -2 9 -11 5 -17 9 -12 9 11 1 -24 51 -36 51 -6 0 0 -11 13 -25
13 -14 19 -25 14 -25 -20 0 -78 51 -111 97 -31 44 -68 69 -56 37z"/>
<path d="M3151 2254 c0 -11 3 -14 6 -6 3 7 2 16 -1 19 -3 4 -6 -2 -5 -13z"/>
<path d="M3561 2254 c0 -11 3 -14 6 -6 3 7 2 16 -1 19 -3 4 -6 -2 -5 -13z"/>
<path d="M2446 2245 c-3 -8 -1 -15 4 -15 6 0 10 7 10 15 0 8 -2 15 -4 15 -2 0
-6 -7 -10 -15z"/>
<path d="M1520 2220 c6 -11 13 -20 16 -20 2 0 0 9 -6 20 -6 11 -13 20 -16 20
-2 0 0 -9 6 -20z"/>
<path d="M3371 2224 c0 -11 3 -14 6 -6 3 7 2 16 -1 19 -3 4 -6 -2 -5 -13z"/>
<path d="M3578 2005 c-3 -134 -10 -255 -16 -274 -7 -19 -8 -30 -3 -25 31 32
52 328 34 469 -8 59 -10 34 -15 -170z"/>
<path d="M2764 2198 c-11 -35 -7 -182 6 -186 13 -5 13 -22 0 -22 -17 0 -42 62
-42 104 1 28 -2 36 -8 26 -16 -25 -11 -53 20 -115 17 -33 28 -51 25 -41 -6 19
-5 19 15 1 29 -26 36 -12 14 32 -14 29 -19 61 -19 131 0 50 -1 92 -2 92 -1 0
-5 -10 -9 -22z"/>
<path d="M301 2150 c-4 -63 -10 -187 -12 -235 -2 -50 3 -85 12 -85 4 0 9 -6
12 -12 2 -7 2 1 -1 17 -2 17 -7 35 -11 40 -4 6 -4 28 0 50 3 22 7 31 8 20 3
-40 82 -225 96 -225 2 0 -8 26 -22 58 -41 93 -66 200 -73 312 -3 58 -8 85 -9
60z"/>
<path d="M669 2125 c-3 -38 -2 -109 2 -157 10 -112 69 -346 69 -275 0 9 -7 36
-14 59 -23 67 -38 172 -45 313 -6 120 -7 125 -12 60z"/>
<path d="M2912 2150 c0 -14 2 -19 5 -12 2 6 2 18 0 25 -3 6 -5 1 -5 -13z"/>
<path d="M2561 2114 c0 -27 4 -58 9 -69 5 -12 7 5 3 45 -7 79 -13 91 -12 24z"/>
<path d="M1440 2114 c0 -54 -38 -153 -79 -203 -19 -24 -27 -40 -17 -34 22 12
126 131 126 145 0 5 7 25 15 42 11 23 13 40 7 57 -9 22 -10 20 -17 -21 -7 -44
-23 -85 -26 -65 0 6 0 34 1 63 1 28 -1 52 -4 52 -3 0 -6 -16 -6 -36z"/>
<path d="M2902 2090 c0 -19 2 -27 5 -17 2 9 2 25 0 35 -3 9 -5 1 -5 -18z"/>
<path d="M921 2084 c0 -11 3 -14 6 -6 3 7 2 16 -1 19 -3 4 -6 -2 -5 -13z"/>
<path d="M1540 2087 c0 -4 7 -21 15 -37 15 -28 14 -30 -4 -30 -25 0 -27 -10
-21 -110 l5 -85 5 90 c5 82 7 90 25 90 11 0 28 9 38 19 22 24 22 36 0 13 -16
-15 -18 -14 -40 21 -12 20 -23 33 -23 29z"/>
<path d="M3021 2083 c-1 -6 -4 -20 -7 -30 -5 -17 -5 -17 6 0 6 10 9 23 6 30
-3 9 -5 9 -5 0z"/>
<path d="M2215 2070 c-3 -5 -1 -10 4 -10 6 0 11 5 11 10 0 6 -2 10 -4 10 -3 0
-8 -4 -11 -10z"/>
<path d="M2517 2023 c-52 -81 -197 -204 -314 -265 -66 -34 -82 -38 -117 -32
-23 3 -52 12 -66 19 -14 7 -38 15 -55 18 -16 3 -57 18 -90 34 -80 37 -84 38
-57 15 18 -17 22 -31 22 -76 0 -45 3 -56 16 -56 11 0 15 -6 11 -20 -3 -11 0
-20 6 -20 15 0 0 -13 -18 -16 -9 -1 -15 6 -16 19 0 22 0 22 -9 0 -5 -13 -24
-32 -42 -43 -18 -11 -28 -20 -23 -20 6 0 23 9 38 19 27 18 31 18 78 2 39 -13
49 -20 47 -35 -2 -15 5 -22 32 -27 19 -4 38 -5 42 -3 22 14 4 -18 -23 -40 -45
-38 -27 -32 27 9 56 43 78 46 64 10 -12 -32 7 -34 20 -2 8 21 9 20 10 -8 l2
-30 10 28 c8 21 13 25 23 17 7 -6 23 -13 36 -15 37 -7 45 -22 24 -45 -10 -11
-14 -20 -9 -20 14 0 34 38 28 53 -4 10 3 14 23 13 25 -1 28 3 31 35 3 32 8 38
41 51 38 15 40 15 67 -11 l29 -26 -27 30 c-14 17 -29 45 -33 63 -7 32 -18 41
-30 22 -10 -16 -55 -12 -55 5 0 19 -18 19 -56 1 -111 -53 -98 -52 -163 -17
-64 34 -101 40 -101 16 0 -19 -2 -19 -50 6 -38 20 -40 24 -40 65 0 42 1 44 20
34 11 -6 20 -15 20 -19 0 -5 7 -12 16 -15 8 -3 12 -2 9 4 -3 6 1 10 9 10 9 0
13 -6 10 -14 -3 -7 2 -16 12 -20 15 -6 15 -4 3 11 -12 15 -12 16 4 10 10 -4
24 -7 30 -7 7 0 6 -4 -3 -10 -12 -8 -10 -10 8 -10 13 0 37 -9 53 -21 31 -22
40 -16 12 8 -17 13 -16 14 7 8 34 -10 61 -10 90 -2 16 5 13 1 -10 -11 -23 -12
-39 -15 -47 -9 -9 7 -13 5 -13 -7 0 -17 40 -23 54 -8 4 4 11 8 14 8 38 8 52
17 42 29 -8 10 -5 15 12 21 13 4 28 7 35 6 7 -2 17 7 23 18 6 11 16 17 22 14
7 -4 8 -3 4 4 -4 7 -1 12 7 12 8 0 21 7 28 17 12 14 15 9 20 -43 l6 -59 1 66
2 67 61 53 c64 57 146 156 136 165 -3 3 -17 -11 -30 -33z m-267 -370 c0 -9 -5
-31 -12 -49 -9 -27 -9 -37 6 -58 l16 -26 -32 -1 c-48 -2 -59 1 -77 18 -20 21
-23 43 -5 43 17 0 19 -17 2 -22 -7 -3 5 -5 27 -6 36 -1 38 0 22 12 -16 13 -16
15 -2 30 15 15 14 16 -14 16 -56 0 -49 23 14 46 44 17 55 16 55 -3z m-202 -18
c16 -16 16 -17 -5 -6 -19 10 -22 9 -17 -4 4 -8 10 -15 15 -15 5 0 9 -4 9 -10
0 -5 -7 -10 -15 -10 -8 0 -15 -4 -15 -9 0 -4 11 -6 24 -4 13 3 27 0 30 -6 8
-13 -47 -24 -97 -19 l-38 3 18 25 c9 13 16 37 14 52 -2 26 0 28 29 24 18 -2
39 -11 48 -21z m282 -4 c0 -10 -9 -21 -20 -24 -23 -6 -23 -6 -10 28 11 28 30
25 30 -4z m-211 -28 c0 -5 -4 -17 -9 -28 -8 -18 -9 -17 -9 8 -1 15 4 27 9 27
6 0 10 -3 9 -7z"/>
<path d="M931 2034 c0 -11 3 -14 6 -6 3 7 2 16 -1 19 -3 4 -6 -2 -5 -13z"/>
<path d="M2702 2020 c0 -14 2 -19 5 -12 2 6 2 18 0 25 -3 6 -5 1 -5 -13z"/>
<path d="M2902 2020 c0 -14 4 -36 8 -50 6 -20 8 -21 8 -5 0 11 -4 34 -8 50 -7
27 -8 27 -8 5z"/>
<path d="M1958 2023 c6 -2 18 -2 25 0 6 3 1 5 -13 5 -14 0 -19 -2 -12 -5z"/>
<path d="M944 1990 c0 -11 4 -20 8 -20 4 0 8 9 8 20 0 11 -4 20 -8 20 -4 0 -8
-9 -8 -20z"/>
<path d="M3414 1985 c-3 -8 -4 -20 -2 -27 3 -7 7 -1 10 15 6 29 1 36 -8 12z"/>
<path d="M1685 1979 c-4 -6 -5 -12 -2 -15 2 -3 7 2 10 11 7 17 1 20 -8 4z"/>
<path d="M2945 1970 c4 -14 7 -33 8 -42 1 -9 5 -14 10 -11 10 6 0 54 -15 68
-8 7 -9 3 -3 -15z"/>
<path d="M3027 1919 c-3 -23 -9 -45 -14 -48 -5 -3 -6 -22 -3 -41 5 -33 6 -33
12 -10 10 37 21 140 15 140 -2 0 -7 -19 -10 -41z"/>
<path d="M240 1927 c0 -14 5 -29 10 -32 7 -4 8 3 4 22 -9 38 -14 42 -14 10z"/>
<path d="M2628 1919 c12 -20 19 -38 17 -41 -3 -3 -8 -22 -10 -43 -8 -57 -12
-54 -26 14 -8 37 -18 61 -26 61 -17 0 -16 -12 6 -90 11 -38 24 -65 31 -65 8 0
20 26 30 66 l16 66 -30 34 -29 34 21 -36z"/>
<path d="M1307 1933 c-4 -3 -7 -15 -7 -25 0 -11 -7 -32 -15 -48 -12 -22 -12
-28 -2 -24 7 2 19 25 26 50 13 43 12 62 -2 47z"/>
<path d="M210 1921 c0 -6 4 -13 10 -16 6 -3 7 1 4 9 -7 18 -14 21 -14 7z"/>
<path d="M1620 1926 c0 -2 18 -13 40 -25 48 -25 53 -19 8 9 -32 19 -48 25 -48
16z"/>
<path d="M2940 1886 c0 -9 5 -16 10 -16 6 0 10 4 10 9 0 6 -4 13 -10 16 -5 3
-10 -1 -10 -9z"/>
<path d="M2970 1876 c0 -14 4 -27 8 -30 5 -3 6 8 4 25 -5 35 -12 38 -12 5z"/>
<path d="M3710 1833 c-16 -86 -38 -149 -80 -239 -50 -104 -74 -207 -74 -314 0
-191 68 -327 203 -410 41 -25 47 -40 20 -48 -11 -3 -12 -2 0 6 19 14 2 20 -42
16 -21 -2 -35 1 -32 5 3 5 -5 9 -18 10 -46 1 -62 5 -75 18 -8 7 -18 11 -23 8
-5 -4 -9 -2 -9 2 0 5 -20 23 -43 40 -61 43 -96 109 -111 213 -13 86 -13 129
-1 178 12 51 -11 8 -34 -61 -17 -51 -22 -86 -19 -144 2 -68 6 -83 35 -126 18
-27 30 -53 27 -59 -3 -5 4 -20 17 -34 12 -13 19 -24 15 -24 -10 0 -60 33 -68
44 -4 6 -10 8 -13 5 -3 -4 13 -25 36 -48 33 -33 48 -41 78 -41 20 0 42 5 48
11 8 8 17 8 33 -1 59 -31 232 -42 290 -17 l35 15 -28 11 c-16 6 -44 23 -62 37
-19 14 -46 27 -59 28 -13 0 -24 4 -23 7 3 9 -96 103 -105 101 -5 -1 -7 1 -6 6
1 4 -9 29 -21 56 -43 97 -38 325 10 442 11 27 17 37 15 23 -3 -14 -8 -59 -11
-100 -4 -69 -3 -67 16 41 11 63 30 135 41 160 23 52 43 125 53 193 10 66 -1
59 -15 -10z m-283 -777 c26 -60 72 -126 118 -169 42 -40 35 -39 -27 3 -39 26
-106 128 -123 188 -5 19 -8 62 -6 96 l5 61 7 -69 c4 -39 16 -88 26 -110z m293
-128 c0 -6 -6 -5 -15 2 -8 7 -15 14 -15 16 0 2 7 1 15 -2 8 -4 15 -11 15 -16z
m76 -48 c8 0 14 -4 14 -10 0 -5 -4 -10 -8 -10 -12 0 -32 22 -31 35 0 5 3 4 6
-2 2 -7 11 -13 19 -13z m-41 -50 c-3 -5 -16 -10 -28 -10 -18 0 -19 2 -7 10 20
13 43 13 35 0z m82 -6 c-3 -3 -12 -4 -19 -1 -8 3 -5 6 6 6 11 1 17 -2 13 -5z"/>
<path d="M1714 1871 c8 -13 66 -44 72 -39 2 3 -15 15 -38 28 -22 13 -38 18
-34 11z"/>
<path d="M3367 1780 c-14 -58 -44 -172 -66 -255 -35 -132 -40 -164 -42 -270 0
-66 4 -132 9 -147 11 -26 28 -145 24 -161 -3 -12 86 -97 103 -97 9 0 3 12 -18
33 -17 17 -34 31 -37 30 -3 -1 -6 6 -7 15 -1 9 -9 38 -17 64 -22 63 -31 156
-30 313 0 129 11 189 58 330 23 67 58 224 54 237 -3 7 -16 -35 -31 -92z m-60
-812 c-3 -8 -6 -5 -6 6 -1 11 2 17 5 13 3 -3 4 -12 1 -19z"/>
<path d="M240 1854 c0 -11 7 -29 15 -40 19 -25 19 -4 0 32 -12 24 -15 26 -15
8z"/>
<path d="M2970 1823 c0 -6 8 -17 18 -24 16 -13 16 -13 2 6 -8 11 -16 22 -17
24 -2 2 -3 0 -3 -6z"/>
<path d="M1514 1761 c-8 -73 -21 -87 -30 -33 -7 42 -20 70 -29 61 -11 -11 27
-149 41 -149 8 0 15 9 15 20 2 23 1 19 18 88 9 38 10 57 3 64 -8 8 -13 -8 -18
-51z"/>
<path d="M280 1783 c0 -24 27 -98 63 -173 33 -69 41 -100 47 -165 5 -70 7 -76
14 -44 7 35 -12 161 -30 191 -6 10 -5 10 9 -1 15 -12 16 -11 5 20 -16 48 -29
64 -39 47 -5 -7 -9 -8 -9 -2 0 5 5 15 11 21 7 7 3 18 -14 37 -13 14 -27 23
-30 19 -4 -3 -7 5 -7 20 0 14 -4 29 -10 32 -5 3 -10 3 -10 -2z m60 -95 c0 -5
-7 -3 -15 6 -8 8 -15 18 -15 22 0 3 7 1 15 -6 8 -7 15 -17 15 -22z"/>
<path d="M2922 1750 c0 -14 2 -19 5 -12 2 6 2 18 0 25 -3 6 -5 1 -5 -13z"/>
<path d="M2996 1745 c-3 -8 -1 -15 4 -15 6 0 10 7 10 15 0 8 -2 15 -4 15 -2 0
-6 -7 -10 -15z"/>
<path d="M977 1695 c4 -27 7 -71 6 -97 -2 -31 1 -48 9 -48 14 0 5 150 -11 177
-9 14 -10 7 -4 -32z"/>
<path d="M2913 1660 c0 -30 2 -43 4 -27 2 15 2 39 0 55 -2 15 -4 2 -4 -28z"/>
<path d="M2976 1669 c-3 -17 -6 -41 -5 -53 1 -19 2 -18 8 4 17 57 21 80 12 80
-4 0 -11 -14 -15 -31z"/>
<path d="M3011 1538 c0 -68 3 -131 7 -140 4 -10 7 45 7 122 0 77 -3 140 -7
140 -5 0 -8 -55 -7 -122z"/>
<path d="M651 1645 c1 -19 18 -51 18 -35 0 8 -4 22 -9 30 -5 8 -9 11 -9 5z"/>
<path d="M470 1582 c6 -13 14 -21 18 -18 3 4 -2 14 -12 24 -18 16 -18 16 -6
-6z"/>
<path d="M950 1581 c0 -6 4 -13 10 -16 6 -3 7 1 4 9 -7 18 -14 21 -14 7z"/>
<path d="M2948 1517 c-29 -127 -25 -137 52 -151 l35 -6 -35 15 -35 15 3 68 c2
38 2 84 0 103 -2 28 -6 21 -20 -44z"/>
<path d="M1728 1573 c7 -3 16 -2 19 1 4 3 -2 6 -13 5 -11 0 -14 -3 -6 -6z"/>
<path d="M401 1555 c-1 -11 10 -42 24 -70 28 -58 34 -44 6 18 -10 23 -21 49
-24 57 -4 11 -6 9 -6 -5z"/>
<path d="M1670 1555 l-25 -15 28 6 c26 6 27 5 28 -37 0 -24 7 -60 15 -79 l14
-35 -5 35 c-4 19 -9 59 -12 88 -3 28 -9 52 -12 52 -3 -1 -17 -7 -31 -15z"/>
<path d="M1173 1553 c9 -2 25 -2 35 0 9 3 1 5 -18 5 -19 0 -27 -2 -17 -5z"/>
<path d="M1288 1553 c6 -2 18 -2 25 0 6 3 1 5 -13 5 -14 0 -19 -2 -12 -5z"/>
<path d="M679 1415 c-5 -103 -11 -146 -33 -210 -28 -82 -85 -195 -113 -224
-32 -32 -157 -121 -170 -121 -18 0 -17 5 17 52 31 42 39 65 18 52 -8 -5 -9 -2
-5 9 20 48 16 47 -18 -8 -21 -33 -38 -65 -38 -72 0 -6 -7 -8 -15 -5 -11 4 -14
1 -10 -9 4 -10 -1 -15 -15 -17 -17 -1 -19 1 -7 8 8 5 10 10 4 10 -19 0 -24
-13 -11 -28 11 -13 9 -14 -13 -2 -23 12 -24 12 -11 -4 13 -15 12 -16 -14 -6
-20 8 -31 7 -41 -1 -8 -7 -31 -13 -52 -15 -36 -4 -36 -3 23 27 33 17 65 31 72
31 7 1 10 5 7 10 -3 4 0 8 5 8 6 0 21 10 33 22 13 13 27 23 32 23 5 0 10 8 12
18 3 21 25 50 32 42 3 -2 1 -10 -4 -18 -5 -7 -1 -4 8 6 11 12 16 28 12 41 -3
14 1 28 11 36 14 12 16 12 15 -1 -7 -48 5 -34 21 26 11 39 21 113 23 165 3 84
3 87 -3 25 -4 -38 -15 -90 -25 -115 -29 -76 -63 -139 -71 -132 -5 4 -5 1 0 -7
11 -19 -109 -131 -171 -157 -65 -28 -145 -54 -166 -54 -23 0 -23 -16 -2 -24
10 -4 49 -9 88 -12 62 -6 79 -3 135 20 36 14 68 31 71 36 3 5 55 12 114 15
134 6 149 10 142 38 -3 12 -3 17 0 10 7 -17 34 -4 34 16 0 13 -2 13 -9 2 -5
-7 -13 -11 -19 -7 -5 3 -22 -6 -37 -20 -39 -36 -42 -23 -5 19 19 22 37 34 46
30 8 -3 14 0 14 7 0 6 -5 8 -11 4 -7 -4 -10 -3 -7 2 2 5 16 35 32 66 18 38 25
65 21 79 -5 15 -4 19 4 15 6 -4 10 -4 9 1 -1 4 5 31 14 58 29 85 39 166 36
270 l-3 100 -6 -130z m-88 -392 c-12 -20 -14 -14 -5 12 4 9 9 14 11 11 3 -2 0
-13 -6 -23z m-121 -133 c-37 -28 -50 -24 -15 4 17 13 32 22 35 19 3 -2 -6 -13
-20 -23z m-256 -75 c-10 -8 -23 -14 -29 -14 -5 0 -1 6 9 14 11 8 24 15 30 15
5 0 1 -7 -10 -15z m-130 -3 c2 -4 -5 -9 -17 -9 -17 -2 -19 0 -7 7 18 12 18 12
24 2z m46 -12 c0 -5 -7 -10 -16 -10 -8 0 -12 5 -9 10 3 6 10 10 16 10 5 0 9
-4 9 -10z m40 6 c0 -3 -4 -8 -10 -11 -5 -3 -10 -1 -10 4 0 6 5 11 10 11 6 0
10 -2 10 -4z"/>
<path d="M1050 1530 c-9 -6 -10 -10 -3 -10 6 0 15 5 18 10 8 12 4 12 -15 0z"/>
<path d="M1408 1533 c6 -2 18 -2 25 0 6 3 1 5 -13 5 -14 0 -19 -2 -12 -5z"/>
<path d="M1510 1530 l-45 -7 50 0 c28 0 64 3 80 7 l30 8 -35 -1 c-19 0 -55 -3
-80 -7z"/>
<path d="M2487 1519 c7 -7 15 -10 18 -7 3 3 -2 9 -12 12 -14 6 -15 5 -6 -5z"/>
<path d="M500 1515 c0 -5 5 -17 10 -25 5 -8 10 -10 10 -5 0 6 -5 17 -10 25 -5
8 -10 11 -10 5z"/>
<path d="M2540 1496 c0 -2 7 -7 16 -10 8 -3 12 -2 9 4 -6 10 -25 14 -25 6z"/>
<path d="M3446 1483 c-6 -14 -5 -15 5 -6 7 7 10 15 7 18 -3 3 -9 -2 -12 -12z"/>
<path d="M2438 1440 c-4 -14 -9 -36 -13 -50 -4 -16 0 -12 10 9 9 19 14 42 12
50 -2 10 -5 7 -9 -9z"/>
<path d="M2638 1448 c5 -5 16 -8 23 -6 8 3 3 7 -10 11 -17 4 -21 3 -13 -5z"/>
<path d="M1128 1443 c6 -2 18 -2 25 0 6 3 1 5 -13 5 -14 0 -19 -2 -12 -5z"/>
<path d="M2095 1441 c-9 -15 13 -23 32 -11 15 9 14 10 -6 4 -16 -4 -21 -3 -17
5 4 6 5 11 2 11 -3 0 -7 -4 -11 -9z"/>
<path d="M2698 1433 c7 -3 16 -2 19 1 4 3 -2 6 -13 5 -11 0 -14 -3 -6 -6z"/>
<path d="M1216 1415 c10 -8 24 -14 29 -14 6 0 1 6 -9 14 -11 8 -24 15 -30 15
-5 0 -1 -7 10 -15z"/>
<path d="M2770 1420 c34 -11 60 -11 35 0 -11 5 -29 8 -40 8 -16 0 -15 -2 5 -8z"/>
<path d="M3415 1410 c-4 -12 -5 -24 -2 -27 3 -2 8 5 12 17 4 12 5 24 2 27 -3
2 -8 -5 -12 -17z"/>
<path d="M533 1350 c0 -36 2 -50 4 -32 2 17 2 47 0 65 -2 17 -4 3 -4 -33z"/>
<path d="M2838 1403 c6 -2 18 -2 25 0 6 3 1 5 -13 5 -14 0 -19 -2 -12 -5z"/>
<path d="M1731 1385 c0 -5 6 -21 14 -35 8 -14 14 -20 14 -15 0 6 -6 21 -14 35
-8 14 -14 21 -14 15z"/>
<path d="M2411 1344 c0 -11 3 -14 6 -6 3 7 2 16 -1 19 -3 4 -6 -2 -5 -13z"/>
<path d="M3621 1328 c-2 -68 83 -231 129 -246 8 -3 0 9 -18 27 -17 18 -32 37
-32 43 0 5 -9 23 -20 39 -20 27 -43 94 -53 149 -3 18 -5 15 -6 -12z"/>
<path d="M378 1325 c-8 -37 -41 -107 -74 -160 -16 -26 -18 -31 -5 -15 12 14
26 31 32 38 22 27 60 123 57 144 -3 20 -4 19 -10 -7z"/>
<path d="M1330 1346 c0 -2 7 -7 16 -10 8 -3 12 -2 9 4 -6 10 -25 14 -25 6z"/>
<path d="M1761 1316 c-1 -13 78 -168 97 -188 8 -10 20 -18 26 -18 6 0 3 5 -7
11 -9 6 -40 54 -67 107 -27 53 -49 93 -49 88z"/>
<path d="M1235 1240 c3 -5 8 -10 11 -10 2 0 4 5 4 10 0 6 -5 10 -11 10 -5 0
-7 -4 -4 -10z"/>
<path d="M2354 1194 c-9 -21 -23 -52 -31 -68 -8 -15 -10 -25 -4 -22 13 8 63
118 56 124 -2 3 -12 -12 -21 -34z"/>
<path d="M2980 1205 c-8 -9 -8 -15 -2 -15 12 0 26 19 19 26 -2 2 -10 -2 -17
-11z"/>
<path d="M335 1155 c-20 -30 -41 -55 -46 -55 -5 0 -9 -5 -9 -11 0 -5 5 -7 10
-4 15 10 92 116 88 121 -3 2 -22 -21 -43 -51z"/>
<path d="M1275 1189 c11 -13 21 -26 22 -28 2 -2 3 2 3 10 0 8 -10 20 -22 28
l-23 14 20 -24z"/>
<path d="M781 1184 c0 -11 3 -14 6 -6 3 7 2 16 -1 19 -3 4 -6 -2 -5 -13z"/>
<path d="M153 1120 c0 -25 2 -35 4 -22 2 12 2 32 0 45 -2 12 -4 2 -4 -23z"/>
<path d="M1680 1139 c-6 -11 -10 -25 -8 -30 2 -5 8 4 15 21 13 34 9 40 -7 9z"/>
<path d="M772 1130 c0 -14 2 -19 5 -12 2 6 2 18 0 25 -3 6 -5 1 -5 -13z"/>
<path d="M2520 1134 c58 -8 150 -8 150 -1 0 4 -39 6 -87 6 -49 -1 -77 -3 -63
-5z"/>
<path d="M34 1096 c22 -20 44 -36 49 -36 6 0 8 1 6 3 -2 2 -24 18 -49 36 l-45
33 39 -36z"/>
<path d="M255 1100 c-10 -11 -13 -20 -7 -20 6 0 16 9 22 20 6 11 9 20 7 20 -2
0 -12 -9 -22 -20z"/>
<path d="M1670 1071 c0 -5 5 -13 10 -16 6 -3 10 -2 10 4 0 5 -4 13 -10 16 -5
3 -10 2 -10 -4z"/>
<path d="M245 1060 c-4 -6 -11 -7 -17 -4 -6 4 -8 3 -5 -3 4 -5 -5 -16 -18 -23
-14 -7 -25 -17 -25 -23 0 -5 19 6 43 24 23 18 44 34 46 36 2 2 -1 3 -7 3 -6 0
-14 -5 -17 -10z"/>
<path d="M690 1061 c0 -4 -16 -23 -35 -42 -19 -19 -35 -38 -35 -42 0 -5 18 11
40 34 36 39 48 59 35 59 -3 0 -5 -4 -5 -9z"/>
<path d="M761 1054 c0 -11 3 -14 6 -6 3 7 2 16 -1 19 -3 4 -6 -2 -5 -13z"/>
<path d="M1730 1035 c-7 -9 -11 -17 -9 -20 3 -2 10 5 17 15 14 24 10 26 -8 5z"/>
<path d="M1821 1024 c0 -11 3 -14 6 -6 3 7 2 16 -1 19 -3 4 -6 -2 -5 -13z"/>
<path d="M2110 1015 c-7 -9 -11 -18 -8 -20 3 -3 11 1 18 10 7 9 11 18 8 20 -3
3 -11 -1 -18 -10z"/>
<path d="M2285 1023 c-22 -3 -43 -8 -47 -11 -4 -4 12 -6 35 -4 23 2 46 8 52
13 5 5 7 8 5 7 -3 -1 -23 -3 -45 -5z"/>
<path d="M2466 1021 c-3 -5 3 -11 15 -14 16 -4 18 -3 8 9 -13 16 -16 17 -23 5z"/>
<path d="M2150 1010 c0 -5 4 -10 9 -10 9 0 8 -25 -4 -110 -2 -19 -2 -28 2 -20
8 21 45 50 64 50 9 0 22 6 28 14 10 12 8 13 -8 9 -12 -3 -29 1 -39 8 -15 12
-16 12 -5 -2 12 -15 8 -29 -7 -29 -16 0 -6 45 13 61 l22 18 -22 -6 c-15 -3
-25 0 -29 11 -7 18 -24 22 -24 6z"/>
<path d="M2386 1012 c-2 -4 11 -6 30 -4 19 2 34 6 34 8 0 8 -59 4 -64 -4z"/>
<path d="M706 975 c-15 -19 -32 -32 -38 -29 -6 4 -8 2 -4 -4 3 -6 -3 -13 -14
-17 -11 -3 -20 -11 -20 -16 0 -6 6 -6 18 0 25 14 97 90 90 96 -3 3 -17 -10
-32 -30z"/>
<path d="M1702 975 c-9 -18 -8 -26 1 -31 7 -4 9 -4 5 1 -4 4 -3 16 3 27 6 11
9 22 6 24 -2 2 -9 -7 -15 -21z"/>
<path d="M1917 978 c-4 -12 -4 -24 -2 -27 3 -2 5 1 5 8 0 7 4 10 8 7 4 -2 9 4
9 15 2 26 -13 24 -20 -3z"/>
<path d="M2040 980 c0 -9 39 -25 45 -18 2 2 -7 8 -21 15 -13 6 -24 7 -24 3z"/>
<path d="M2362 953 c-1 -23 -5 -50 -8 -60 -5 -17 -5 -17 6 0 6 9 9 36 7 60
l-4 42 -1 -42z"/>
<path d="M2390 966 c0 -14 5 -28 11 -31 6 -4 8 -13 5 -20 -3 -9 6 -14 27 -17
28 -3 32 0 32 19 0 21 -1 21 -12 7 -15 -21 -30 -11 -38 26 -8 38 -25 49 -25
16z"/>
<path d="M2549 963 c12 -10 23 -28 24 -40 0 -12 5 -20 9 -17 15 10 -23 74 -45
74 -5 0 0 -8 12 -17z"/>
<path d="M3396 950 c10 -20 19 -29 22 -21 2 7 -5 23 -17 35 l-22 21 17 -35z"/>
<path d="M1995 950 c-3 -5 -1 -10 4 -10 6 0 11 5 11 10 0 6 -2 10 -4 10 -3 0
-8 -4 -11 -10z"/>
<path d="M1382 930 c-6 -14 -13 -42 -17 -62 -5 -31 -12 -40 -51 -58 -25 -12
-43 -25 -40 -28 3 -2 12 1 21 8 9 7 18 10 21 7 9 -8 -44 -40 -55 -33 -6 4 -15
-12 -21 -35 -6 -23 -16 -53 -22 -68 -6 -14 -12 -31 -13 -37 -6 -27 -39 -64
-57 -64 -10 0 -33 -7 -51 -17 -28 -14 -30 -14 -19 -1 7 9 24 19 37 22 14 4 25
11 25 16 0 6 6 10 13 10 8 0 22 9 32 20 26 29 14 25 -46 -15 -30 -19 -57 -35
-60 -35 -4 0 -12 -14 -18 -32 -15 -43 -57 -95 -89 -112 -30 -16 -324 -88 -330
-81 -2 2 10 45 27 96 17 51 29 95 26 97 -2 3 -7 -4 -10 -14 -4 -10 -17 -46
-29 -79 -13 -33 -27 -75 -31 -93 -3 -17 -12 -32 -18 -32 -7 -1 -25 -8 -42 -16
-16 -8 -22 -12 -12 -9 11 3 15 1 12 -6 -4 -5 -14 -7 -23 -5 -20 7 -36 -3 -45
-26 -3 -9 -24 -22 -46 -28 -49 -13 -55 -25 -8 -16 23 4 28 3 17 -4 -8 -5 -22
-10 -31 -10 -8 0 -25 -9 -37 -20 -12 -12 -22 -15 -22 -9 0 6 8 18 18 26 15 12
13 12 -10 2 -16 -7 -28 -17 -28 -23 0 -7 -9 -29 -20 -51 -24 -47 -25 -59 -4
-90 l16 -25 749 0 c645 0 749 2 749 14 0 8 -5 18 -10 21 -6 3 -7 17 -4 31 5
19 3 23 -10 18 -9 -3 -13 -11 -9 -17 13 -21 -80 39 -122 78 l-43 41 19 25 c10
13 19 31 19 39 0 8 18 32 39 52 30 28 42 49 50 88 6 28 9 55 6 60 -10 16 -13
73 -6 130 l7 59 -30 3 c-32 3 -36 13 -21 53 4 11 -3 4 -16 -15 -19 -26 -33
-36 -59 -38 -29 -3 -38 2 -66 35 l-32 38 24 22 c13 12 24 28 24 35 0 7 -6 4
-12 -7 -15 -28 -14 -27 -44 -31 -44 -4 -79 20 -97 68 -8 24 -24 68 -35 98 -19
53 -20 54 -30 30z m-312 -455 c0 -8 -9 -19 -21 -25 -20 -11 -20 -11 -4 14 20
30 25 32 25 11z"/>
<path d="M1480 945 c0 -5 5 -17 10 -25 5 -8 10 -10 10 -5 0 6 -5 17 -10 25 -5
8 -10 11 -10 5z"/>
<path d="M1957 911 c-4 -17 -3 -21 5 -13 5 5 8 16 6 23 -3 8 -7 3 -11 -10z"/>
<path d="M1792 893 c-5 -16 -13 -37 -17 -48 l-7 -20 14 20 c15 20 32 75 24 75
-2 0 -9 -12 -14 -27z"/>
<path d="M1670 880 c-6 -11 -8 -20 -6 -20 3 0 10 9 16 20 6 11 8 20 6 20 -3 0
-10 -9 -16 -20z"/>
<path d="M1888 868 c-4 -9 4 -22 18 -33 15 -11 23 -25 19 -34 -3 -11 0 -9 10
3 8 11 15 25 15 30 0 6 -5 4 -10 -4 -9 -14 -14 -7 -11 13 1 5 -3 6 -9 2 -6 -3
-14 4 -18 16 -7 17 -10 19 -14 7z"/>
<path d="M2246 863 c-10 -10 -7 -41 5 -49 8 -4 9 1 4 16 -5 15 -4 20 4 16 6
-4 11 -3 11 3 0 13 -15 22 -24 14z"/>
<path d="M2350 863 c0 -6 8 -17 18 -24 16 -13 16 -13 2 6 -8 11 -16 22 -17 24
-2 2 -3 0 -3 -6z"/>
<path d="M3925 860 c11 -5 31 -8 45 -8 l25 0 -25 8 c-14 4 -34 8 -45 8 l-20 1
20 -9z"/>
<path d="M2070 850 c0 -5 -6 -10 -14 -10 -7 0 -19 -6 -25 -14 -9 -11 -8 -14 6
-12 11 0 18 -6 18 -17 0 -10 7 -23 16 -28 14 -7 18 -3 21 21 3 17 1 30 -4 30
-5 0 -6 9 -3 20 4 11 2 20 -4 20 -6 0 -11 -4 -11 -10z"/>
<path d="M2547 853 c-4 -3 -7 -11 -7 -17 0 -6 5 -5 12 2 6 6 9 14 7 17 -3 3
-9 2 -12 -2z"/>
<path d="M2131 819 c-13 -5 -22 -11 -20 -14 8 -7 49 7 49 16 0 5 -1 9 -2 8 -2
0 -14 -5 -27 -10z"/>
<path d="M2500 798 c0 -4 4 -8 9 -8 6 0 12 4 15 8 3 5 -1 9 -9 9 -8 0 -15 -4
-15 -9z"/>
<path d="M2002 775 c-10 -21 -9 -32 3 -55 15 -29 17 -47 4 -43 -3 1 -6 -5 -6
-13 0 -12 3 -12 16 0 9 7 23 11 31 9 8 -3 5 2 -7 12 -13 9 -23 21 -23 27 0 7
5 6 14 -1 10 -8 9 -1 -4 24 -10 20 -16 43 -13 51 9 24 -3 15 -15 -11z"/>
<path d="M1746 775 c-9 -26 -7 -32 5 -12 6 10 9 21 6 23 -2 3 -7 -2 -11 -11z"/>
<path d="M732 760 c0 -14 2 -19 5 -12 2 6 2 18 0 25 -3 6 -5 1 -5 -13z"/>
<path d="M1850 755 c0 -8 2 -15 4 -15 2 0 6 7 10 15 3 8 1 15 -4 15 -6 0 -10
-7 -10 -15z"/>
<path d="M2653 748 c-6 -13 -19 -42 -29 -66 -9 -24 -30 -52 -46 -64 -27 -19
-30 -19 -54 -3 -14 9 -29 26 -33 38 -5 13 -17 29 -27 37 -29 24 24 -61 55 -87
23 -19 24 -22 9 -28 -9 -4 -23 -3 -30 1 -7 4 -10 4 -6 -1 12 -13 -12 -35 -29
-28 -10 4 -14 2 -10 -4 12 -19 -62 -26 -88 -9 -20 13 -24 13 -29 1 -3 -9 -19
-15 -38 -15 -38 0 -50 7 -67 35 -11 18 -11 18 -5 -5 4 -14 9 -34 10 -45 1 -11
5 -32 9 -47 7 -26 -7 -66 -29 -80 -5 -4 -12 -52 -14 -107 -4 -90 -6 -101 -23
-101 -21 0 -129 -38 -143 -50 -4 -5 -14 -33 -21 -64 l-13 -56 764 0 c420 0
764 3 764 6 0 3 -19 13 -42 24 -30 13 -47 16 -60 9 -12 -6 -24 -6 -36 0 -13 8
-14 11 -2 11 12 0 11 3 -2 11 -11 6 -19 23 -19 42 -2 31 -2 31 -6 4 -4 -27 -6
-28 -46 -22 -47 7 -190 73 -254 116 -23 16 -53 33 -68 39 -47 18 -105 72 -105
97 0 13 -7 37 -15 54 -9 16 -17 50 -18 74 -1 30 -5 40 -13 34 -7 -6 -16 -4
-24 6 -7 8 -24 15 -39 15 -19 0 -30 8 -41 33 -9 19 -25 34 -40 37 -23 5 -26
12 -32 75 -4 39 -5 78 -2 88 8 24 -1 21 -13 -5z m75 -209 c-3 -8 -7 -3 -11 10
-4 17 -3 21 5 13 5 -5 8 -16 6 -23z m103 -77 c7 -15 15 -31 18 -37 7 -16 -24
18 -43 48 -15 22 -15 26 -4 22 9 -4 21 -18 29 -33z"/>
<path d="M2425 736 c10 -14 19 -26 22 -26 7 0 -17 39 -28 46 -6 3 -3 -5 6 -20z"/>
<path d="M2100 745 c0 -5 5 -17 10 -25 5 -8 10 -10 10 -5 0 6 -5 17 -10 25 -5
8 -10 11 -10 5z"/>
<path d="M3921 729 c-40 -16 -17 -20 25 -5 22 8 30 15 19 15 -11 0 -31 -5 -44
-10z"/>
<path d="M3810 690 c-8 -5 -10 -10 -5 -10 6 0 17 5 25 10 8 5 11 10 5 10 -5 0
-17 -5 -25 -10z"/>
<path d="M1808 651 c-15 -17 -14 -18 8 -18 14 0 27 3 30 8 3 5 -2 6 -11 3 -11
-5 -14 -2 -9 10 8 21 2 20 -18 -3z"/>
<path d="M3693 656 c-18 -6 -35 -15 -39 -19 -7 -7 37 5 76 21 34 14 3 12 -37
-2z"/>
<path d="M2311 635 c0 -5 6 -21 14 -35 8 -14 14 -20 14 -15 0 6 -6 21 -14 35
-8 14 -14 21 -14 15z"/>
<path d="M3606 630 c-16 -5 -33 -7 -38 -4 -4 3 -8 1 -8 -5 0 -5 -12 -14 -27
-19 -28 -10 -28 -10 -4 -11 22 -1 111 35 111 45 0 2 -1 4 -2 3 -2 0 -16 -5
-32 -9z"/>
<path d="M2507 589 c7 -7 15 -10 18 -7 3 3 -2 9 -12 12 -14 6 -15 5 -6 -5z"/>
<path d="M3455 580 c-13 -6 -15 -9 -5 -9 8 0 22 4 30 9 18 12 2 12 -25 0z"/>
<path d="M3351 549 c-13 -5 -22 -12 -19 -14 3 -3 20 1 39 9 37 17 19 21 -20 5z"/>
<path d="M3302 460 c0 -14 2 -19 5 -12 2 6 2 18 0 25 -3 6 -5 1 -5 -13z"/>
<path d="M3312 410 c0 -14 2 -19 5 -12 2 6 2 18 0 25 -3 6 -5 1 -5 -13z"/>
<path d="M2003 382 c-1 -9 -5 -28 -9 -42 -7 -22 -6 -24 9 -12 9 8 13 21 10 30
-4 15 -3 15 6 2 9 -13 14 -12 33 9 13 14 15 19 5 12 -15 -12 -20 -11 -35 2
-16 15 -18 15 -19 -1z"/>
<path d="M2109 363 c-13 -16 -12 -17 4 -4 16 13 21 21 13 21 -2 0 -10 -8 -17
-17z"/>
<path d="M2045 329 c-4 -6 -5 -12 -2 -15 2 -3 7 2 10 11 7 17 1 20 -8 4z"/>
<path d="M1959 293 c-13 -16 -12 -17 4 -4 16 13 21 21 13 21 -2 0 -10 -8 -17
-17z"/>
<path d="M3331 270 c0 -8 6 -40 14 -70 9 -39 13 -46 13 -25 0 31 -25 122 -27
95z"/>
<path d="M2026 214 c-9 -24 -7 -28 7 -15 8 6 17 8 20 4 4 -3 7 1 7 10 0 22
-26 22 -34 1z"/>
<path d="M1900 185 c-11 -13 -10 -14 4 -9 9 3 16 10 16 15 0 13 -6 11 -20 -6z"/>
<path d="M1917 123 c-10 -9 -9 -23 2 -23 5 0 11 7 15 15 5 15 -5 20 -17 8z"/>
<path d="M1787 103 c-10 -9 -9 -23 1 -23 5 0 9 7 9 15 0 17 -1 18 -10 8z"/>
<path d="M1903 75 c-3 -9 -3 -19 1 -22 3 -4 6 1 6 10 0 8 6 18 13 20 9 4 9 6
-1 6 -7 1 -15 -6 -19 -14z"/>
</g>
</svg>
